<?xml version="1.0" encoding="UTF-8"?> <!-- Generator: Adobe Illustrator 19.0.0, SVG Export Plug-In . SVG Version: 6.00 Build 0) --> <svg xmlns="http://www.w3.org/2000/svg" xmlns:xlink="http://www.w3.org/1999/xlink" id="Capa_1" x="0px" y="0px" viewBox="0 0 512.007 512.007" style="enable-background:new 0 0 512.007 512.007;" xml:space="preserve"> <g> <g> <g> <path d="M181.337,384.003c-5.896,0-10.667,4.771-10.667,10.667s4.771,10.667,10.667,10.667c4.167,0,9.271,8.292,11.208,13.99 c1.458,4.5,5.646,7.344,10.125,7.344c1.104,0,2.229-0.167,3.333-0.531c5.583-1.833,8.646-7.865,6.792-13.458 C211.837,409.743,202.774,384.003,181.337,384.003z"></path> <path d="M330.67,384.003c-21.438,0-30.5,25.74-31.458,28.677c-1.854,5.594,1.208,11.625,6.792,13.458 c1.104,0.365,2.229,0.531,3.333,0.531c4.479,0,8.667-2.844,10.125-7.344c1.667-5.021,6.813-13.99,11.208-13.99 c5.896,0,10.667-4.771,10.667-10.667S336.566,384.003,330.67,384.003z"></path> <path d="M510.212,196.766c-27.339-41.006-58.383-57.468-86.146-64.145c36.556-25.028,40.6-72.751,43.063-101.776 c0.583-7.135,1.083-13.375,2.021-18.114c1.042-5.375-2.146-10.666-7.396-12.25c-5.208-1.594-10.833,1.052-12.938,6.114 c-22.299,53.618-76.62,73.687-107.91,77.66c-20.297-13.273-45.09-20.235-74.236-20.235h-21.333 c-29.146,0-53.939,6.962-74.236,20.235c-31.29-3.972-85.611-24.042-107.91-77.66c-2.104-5.062-7.729-7.75-12.938-6.114 c-5.25,1.583-8.438,6.875-7.396,12.25c0.938,4.739,1.438,10.979,2.021,18.114c2.462,29.03,6.507,76.765,43.081,101.79 c-27.788,6.686-58.844,23.153-86.164,64.13c-1.688,2.542-2.229,5.698-1.438,8.656c0.792,2.958,2.813,5.437,5.542,6.802 c1.733,0.866,41.245,19.933,101.07,22.05c-0.104,3.687-0.299,7.276-0.299,11.074c0,17.791,8.292,30.749,16.313,43.269 c8.062,12.604,15.687,24.509,15.687,42.061v43.872c-7.004,11.419-10.667,25.244-10.667,41.458 c0,16.755,7.012,42.988,47.871,50.917c2.715,2.846,5.383,5.729,7.941,8.643c15.083,17.072,32.167,36.436,72.188,36.436 s57.104-19.364,72.188-36.436c2.559-2.914,5.227-5.797,7.941-8.643c40.859-7.929,47.871-34.163,47.871-50.917 c0-16.214-3.663-30.039-10.667-41.458v-43.872c0-17.551,7.625-29.457,15.688-42.061c8.021-12.52,16.313-25.478,16.313-43.269 c0-3.798-0.195-7.386-0.299-11.074c59.826-2.117,99.337-21.184,101.07-22.05c2.729-1.365,4.75-3.844,5.542-6.802 C512.441,202.463,511.899,199.307,510.212,196.766z M245.337,85.337h21.333c74.289,0,103.542,51.077,113.197,107.78 c-2.716,0.427-5.44,0.878-8.197,1.574c-42.979,10.906-73,51.313-73,98.26v48.385h-85.333v-48.385 c0-46.948-30.021-87.354-73-98.26c-2.756-0.697-5.48-1.147-8.197-1.574C141.795,136.414,171.048,85.337,245.337,85.337z M108.182,213.084c-37.003-1.25-65.876-9.617-80.991-15.143c31.457-40.642,65.779-47.204,94.383-48.299 C114.733,167.989,110.29,189.237,108.182,213.084z M69.087,54.868c24.087,26.26,55.525,40.55,81.021,47.089 c-6.637,7.137-12.52,15.275-17.668,24.348C88.727,120.157,74.783,90.98,69.087,54.868z M140.941,277.108 c-6.938-10.854-12.938-20.229-12.938-31.771c0-10.061,0.443-20.388,1.363-30.717c1.931,0.318,3.738,0.256,5.72,0.759 c9.294,2.354,17.747,6.798,25.272,12.553c-6.646,3.876-11.022,10.197-11.022,17.405c0,5.896,4.771,10.667,10.667,10.667h23.305 c5.501,11.191,8.695,23.788,8.695,36.948v49.243c-8.435,1.161-20.456,4.159-32,11.217V330.67 C160.003,306.878,149.878,291.066,140.941,277.108z M256.003,490.67c-25.557,0-37.658-9.167-49.436-21.777 c12.577-1.12,21.091-6.969,27.895-11.973c6.771-4.979,12.125-8.917,21.542-8.917c9.417,0,14.771,3.938,21.542,8.917 c6.803,5.004,15.318,10.853,27.895,11.973C293.661,481.503,281.561,490.67,256.003,490.67z M309.337,448.003 c-7.917,0-12.625-3.469-19.146-8.26c-7.917-5.823-17.75-13.073-34.188-13.073s-26.271,7.25-34.188,13.073 c-6.521,4.792-11.229,8.26-19.146,8.26c-35.396,0-53.333-10.771-53.333-32c0-16.458,4.604-29.333,13.667-38.281 c15.333-15.146,38.375-15.208,39.667-15.052h106.667c0.042,0,0.125,0,0.188,0c0.25,0,24.021-0.198,39.479,15.052 c9.063,8.948,13.667,21.823,13.667,38.281C362.67,437.233,344.733,448.003,309.337,448.003z M371.066,277.108 c-8.938,13.958-19.063,29.771-19.063,53.563v22.727c-11.572-7.09-23.561-10.055-32-11.202v-49.243 c0-13.16,3.194-25.757,8.695-36.948h23.305c5.896,0,10.667-4.771,10.667-10.667c0-7.206-4.379-13.527-11.02-17.408 c7.523-5.754,15.978-10.197,25.27-12.551c1.982-0.503,3.789-0.441,5.72-0.759c0.921,10.329,1.363,20.656,1.363,30.717 C384.003,256.878,378.003,266.253,371.066,277.108z M379.567,126.304c-5.148-9.073-11.031-17.211-17.668-24.348 c25.496-6.539,56.934-20.828,81.021-47.089C437.224,90.98,423.28,120.157,379.567,126.304z M403.825,213.085 c-2.108-23.85-6.552-45.1-13.395-63.451c28.576,1.082,62.906,7.612,94.406,48.327 C469.774,203.489,440.979,211.841,403.825,213.085z"></path> <circle cx="256.003" cy="138.67" r="10.667"></circle> <circle cx="256.003" cy="245.337" r="10.667"></circle> <circle cx="256.003" cy="192.003" r="21.333"></circle> </g> </g> </g> <g> </g> <g> </g> <g> </g> <g> </g> <g> </g> <g> </g> <g> </g> <g> </g> <g> </g> <g> </g> <g> </g> <g> </g> <g> </g> <g> </g> <g> </g> </svg> 