<?xml version="1.0" encoding="UTF-8"?> <!-- Generator: Adobe Illustrator 16.0.0, SVG Export Plug-In . SVG Version: 6.00 Build 0) --> <svg xmlns="http://www.w3.org/2000/svg" xmlns:xlink="http://www.w3.org/1999/xlink" id="Capa_1" x="0px" y="0px" width="405.488px" height="405.487px" viewBox="0 0 405.488 405.487" style="enable-background:new 0 0 405.488 405.487;" xml:space="preserve"> <g> <g> <g id="Layer_5_15_"> <g> <path d="M268.002,102.59c2.661,0.695,4.964-0.983,5.116-3.729c0,0,1.896-33.994,2.774-43.373 c0.739-7.897,5.817-47.92,5.817-47.92c0.347-2.729-1.615-4.793-4.355-4.588c0,0-10.141,0.759-15.119,0.292 c-5.001-0.468-14.881-3.109-14.881-3.109c-2.657-0.71-4.968,0.954-5.134,3.699c0,0-2.414,39.795-3.142,47.534 c-0.896,9.537-5.403,43.764-5.403,43.764c-0.358,2.727,1.589,4.774,4.33,4.55c0,0,9.368-0.765,14.099-0.354 C257.365,99.813,268.002,102.59,268.002,102.59z"></path> <path d="M257.248,217.205c2.661,0.694,4.963-0.984,5.116-3.729c0,0,1.895-33.995,2.772-43.374 c0.741-7.897,5.818-47.92,5.818-47.92c0.347-2.729-1.613-4.793-4.355-4.587c0,0-10.14,0.758-15.118,0.292 c-5.001-0.469-14.883-3.11-14.883-3.11c-2.655-0.71-4.966,0.954-5.133,3.699c0,0-2.414,39.795-3.141,47.535 c-0.896,9.536-5.404,43.765-5.404,43.765c-0.357,2.727,1.59,4.771,4.33,4.55c0,0,9.369-0.768,14.098-0.354 C246.609,214.428,257.248,217.205,257.248,217.205z"></path> <path d="M246.493,331.818c2.661,0.692,4.963-0.983,5.116-3.729c0,0,1.895-33.995,2.772-43.373 c0.741-7.896,5.818-47.921,5.818-47.921c0.347-2.728-1.614-4.792-4.356-4.587c0,0-10.139,0.758-15.118,0.292 c-5.002-0.468-14.881-3.109-14.881-3.109c-2.657-0.711-4.968,0.954-5.135,3.699c0,0-2.413,39.794-3.14,47.534 c-0.896,9.536-5.405,43.764-5.405,43.764c-0.358,2.729,1.591,4.774,4.331,4.55c0,0,9.369-0.766,14.099-0.354 C235.853,329.041,246.493,331.818,246.493,331.818z"></path> <path d="M319.346,152.196c-16.121,14.607-36.383,20.17-38.536,18.288c-2.188-1.911,3.727-20.004,19.85-34.612 c16.123-14.607,36.35-20.199,38.537-18.288C341.538,119.631,335.468,137.588,319.346,152.196z"></path> <path d="M323.052,192.783c-17.223,0.931-31.795-7.262-31.979-9.943c-0.188-2.722,13.168-12.383,30.391-13.313 c17.225-0.932,31.793,7.22,31.979,9.942C353.642,182.384,340.276,191.851,323.052,192.783z"></path> <path d="M289.088,216.567c-7.639-12.142-7.854-24.957-6.063-25.849c1.816-0.905,13.957,5.975,21.596,18.115 c7.639,12.139,7.884,24.942,6.064,25.848C308.737,235.651,296.728,228.708,289.088,216.567z"></path> <path d="M133.16,202.752c2.681-0.612,3.948-3.164,2.816-5.67c0,0-12.428-27.52-15.627-35.385 c-2.694-6.623-15.117-40.274-15.117-40.274c-0.952-2.579-3.645-3.506-5.982-2.058c0,0-7.372,4.565-11.548,6.266 c-4.193,1.706-12.711,3.599-12.711,3.599c-2.685,0.596-3.965,3.139-2.846,5.65c0,0,14.428,32.373,17.068,38.864 c3.252,7.997,13.72,36.776,13.72,36.776c0.94,2.584,3.614,3.501,5.942,2.037c0,0,6.755-4.248,10.707-5.887 C123.978,204.848,133.16,202.752,133.16,202.752z"></path> <path d="M172.251,298.869c2.681-0.612,3.948-3.164,2.816-5.67c0,0-12.428-27.521-15.626-35.387 c-2.694-6.623-15.117-40.272-15.117-40.272c-0.952-2.58-3.645-3.506-5.982-2.06c0,0-7.372,4.564-11.549,6.267 c-4.193,1.707-12.711,3.599-12.711,3.599c-2.684,0.599-3.965,3.142-2.846,5.651c0,0,14.429,32.372,17.068,38.863 c3.253,7.996,13.721,36.775,13.721,36.775c0.94,2.584,3.613,3.501,5.941,2.037c0,0,6.756-4.248,10.708-5.887 C163.071,300.966,172.251,298.869,172.251,298.869z"></path> <path d="M211.344,394.985c2.682-0.612,3.947-3.163,2.815-5.67c0,0-12.427-27.521-15.625-35.387 c-2.693-6.623-15.116-40.272-15.116-40.272c-0.953-2.579-3.646-3.507-5.983-2.06c0,0-7.371,4.565-11.548,6.268 c-4.193,1.706-12.711,3.599-12.711,3.599c-2.685,0.596-3.965,3.139-2.846,5.65c0,0,14.428,32.373,17.068,38.862 c3.253,7.997,13.721,36.777,13.721,36.777c0.939,2.584,3.613,3.501,5.941,2.037c0,0,6.755-4.249,10.707-5.887 C202.163,397.082,211.344,394.985,211.344,394.985z"></path> <path d="M70.599,249.939c13.533-8.321,29.256-9.104,30.68-7.314c1.446,1.812-4.796,14.499-18.329,22.821 c-13.533,8.32-29.234,9.132-30.68,7.314C50.722,270.818,57.064,258.263,70.599,249.939z"></path> <path d="M81.871,212.555c11.33,7.508,15.526,19.406,14.031,21.148c-1.519,1.77-15.67,1.471-27-6.036 c-11.331-7.507-15.55-19.38-14.032-21.148C56.496,204.624,70.54,205.048,81.871,212.555z"></path> </g> </g> </g> </g> <g> </g> <g> </g> <g> </g> <g> </g> <g> </g> <g> </g> <g> </g> <g> </g> <g> </g> <g> </g> <g> </g> <g> </g> <g> </g> <g> </g> <g> </g> </svg> 