<?xml version="1.0" standalone="no"?>
<!DOCTYPE svg PUBLIC "-//W3C//DTD SVG 20010904//EN"
 "http://www.w3.org/TR/2001/REC-SVG-20010904/DTD/svg10.dtd">
<svg version="1.0" xmlns="http://www.w3.org/2000/svg"
 width="512.000000pt" height="512.000000pt" viewBox="0 0 512.000000 512.000000"
 preserveAspectRatio="xMidYMid meet">

<g transform="translate(0.000000,512.000000) scale(0.100000,-0.100000)"
fill="#000000" stroke="none">
<path d="M4135 5014 c-11 -2 -50 -11 -87 -20 -240 -55 -481 -240 -663 -509
-63 -95 -167 -309 -205 -425 -135 -409 -143 -793 -24 -1162 70 -215 193 -409
329 -517 80 -64 144 -106 150 -99 3 3 0 31 -6 64 -17 90 -5 369 20 477 55 236
170 478 350 734 227 324 319 517 383 803 20 89 23 132 23 290 0 171 -15 317
-35 350 -8 12 -195 24 -235 14z"/>
<path d="M4543 4926 c3 -8 11 -71 18 -139 27 -288 -44 -624 -196 -927 -65
-129 -122 -220 -276 -440 -81 -115 -204 -347 -238 -449 -12 -36 -34 -112 -49
-170 -24 -96 -27 -123 -26 -281 1 -141 5 -187 20 -240 l19 -65 55 -8 c119 -18
294 10 426 68 170 75 375 259 503 449 399 598 429 1434 70 1940 -70 97 -155
181 -243 238 -62 40 -92 48 -83 24z"/>
<path d="M1547 4510 c-709 -62 -1361 -526 -1517 -1080 -19 -70 -40 -280 -27
-280 3 0 47 32 99 71 282 213 651 308 1118 288 567 -25 802 11 1125 174 125
63 279 175 348 255 18 20 18 22 -18 91 -177 336 -620 525 -1128 481z"/>
<path d="M2656 3700 c-117 -89 -219 -149 -347 -204 -298 -126 -579 -169 -962
-145 -350 21 -580 2 -785 -66 -201 -67 -339 -147 -461 -265 l-60 -60 20 -47
c115 -268 418 -464 794 -514 145 -19 433 -6 583 25 210 45 431 132 615 243
334 201 579 490 668 788 18 61 41 317 28 314 -2 0 -44 -31 -93 -69z"/>
<path d="M2265 2545 c-266 -49 -575 -206 -807 -409 -314 -275 -523 -616 -599
-979 -28 -129 -30 -338 -6 -439 20 -82 75 -228 86 -228 5 0 16 20 25 44 27 71
148 246 231 334 130 138 310 269 503 366 37 18 166 73 287 121 249 99 301 124
435 206 254 156 471 387 590 628 21 42 43 93 50 113 11 37 10 39 -21 65 -87
75 -192 132 -301 164 -97 28 -353 36 -473 14z"/>
<path d="M3144 2114 c-176 -338 -443 -593 -825 -785 -44 -22 -161 -71 -261
-109 -228 -88 -355 -150 -488 -238 -244 -161 -424 -375 -501 -600 l-18 -52 68
-55 c453 -366 1285 -132 1798 505 202 250 327 525 369 813 27 187 3 375 -69
531 l-32 68 -41 -78z"/>
</g>
</svg>
