<?xml version="1.0" encoding="UTF-8"?> <!-- Generator: Adobe Illustrator 19.0.0, SVG Export Plug-In . SVG Version: 6.00 Build 0) --> <svg xmlns="http://www.w3.org/2000/svg" xmlns:xlink="http://www.w3.org/1999/xlink" id="Capa_1" x="0px" y="0px" viewBox="0 0 511.999 511.999" style="enable-background:new 0 0 511.999 511.999;" xml:space="preserve"> <g> <g> <path d="M270.344,354.729c-3.909-3.899-10.238-3.899-14.147,0c-3.899,3.909-3.899,10.238,0,14.137 c3.909,3.909,10.238,3.909,14.147,0C274.243,364.966,274.243,358.638,270.344,354.729z"></path> </g> </g> <g> <g> <path d="M240.166,380.934c-3.643-4.148-9.961-4.559-14.11-0.916c-44.713,39.26-87.973,45.394-111.43,38.718 c-5.312-1.511-10.842,1.569-12.352,6.879c-1.511,5.311,1.569,10.842,6.879,12.352c7.166,2.04,15.111,3.053,23.533,3.053 c11.299,0,23.458-1.825,35.744-5.445c24.275-7.15,48.763-21.166,70.819-40.533C243.398,391.4,243.808,385.084,240.166,380.934z"></path> </g> </g> <g> <g> <path d="M499.08,113.296c17.469-48.186,17.22-81.725-0.737-99.682c-17.732-17.733-50.789-18.118-98.254-1.144 c-36.475,13.043-80.867,36.488-121.79,64.321c-20.138,13.691-39.551,28.982-56.821,44.714 c-8.401-17.309-19.521-33.102-32.644-46.233c-3.653-3.655-9.49-3.924-13.464-0.621c-3.974,3.304-4.774,9.092-1.847,13.351 c3.728,5.425,4.327,20.536-6.259,45.274c-8.702,20.335-28.152,54.527-71.391,101.929C53.132,282.062,20.108,346.311,33.95,407.311 L8.772,432.489c-11.695,11.696-11.695,30.727,0,42.424l28.274,28.274c11.721,11.721,30.7,11.724,42.424-0.002l25.103-25.112 c58.561,13.208,122.423-16.962,166.825-58.19c48.891-45.399,84.222-65.925,105.25-75.151 c25.563-11.214,41.144-10.719,46.716-6.887c4.259,2.927,10.045,2.127,13.35-1.847c3.304-3.973,3.036-9.809-0.618-13.463 c-12.616-12.615-28.729-22.958-47.164-30.391c15.466-16.818,30.548-35.738,44.144-55.428 C461.535,195.488,485.592,150.504,499.08,113.296z M65.329,489.048c-3.907,3.907-10.236,3.908-14.145,0L22.91,460.774 c-3.907-3.906-3.907-10.238,0-14.144l18.137-18.136c4.247,9.25,9.733,17.442,16.241,24.196 c4.65,5.287,14.855,13.139,26.087,18.306L65.329,489.048z M395.685,317.35c-8.302,1.792-17.381,4.819-27.07,9.07 c-32.182,14.119-70.504,41.371-110.823,78.809c-68.972,64.039-150.18,69.543-185.393,34.329 c-7.996-7.996-14.134-19.019-17.752-31.885c-13.161-46.687,7.773-106.123,56-158.991c35.717-39.155,61.652-76.342,75.001-107.539 c4.173-9.752,7.085-18.872,8.725-27.188c10.222,15.92,17.558,33.755,21.522,52.354c5.17,24.218,1.453,55.416-10.467,87.846 c-12.849,34.961-34.22,69.353-61.801,99.458c-3.615,3.946-3.481,10.039,0.302,13.823c3.783,3.784,9.877,3.917,13.823,0.303 c64.217-58.828,142.877-81.896,210.418-61.707C378.028,308.975,387.264,312.784,395.685,317.35z M367.995,285.222 c-56.275-14.769-117.018-2.553-168.621,27.081c31.137-51.774,45.225-107.315,36.077-150.166 c-1.507-7.066-3.46-14.079-5.822-20.927c17.849-16.816,38.439-33.284,59.913-47.883c39.584-26.922,82.331-49.531,117.28-62.028 c38.44-13.746,65.922-15.006,77.382-3.545c11.653,11.651,10.261,39.611-3.92,78.728c-12.931,35.668-36.134,78.996-63.661,118.874 C401.721,246.933,384.991,267.518,367.995,285.222z"></path> </g> </g> <g> <g> <path d="M284.642,171.319l-14.137-14.137c-3.904-3.904-10.235-3.904-14.139,0c-3.904,3.904-3.904,10.235,0,14.139l14.137,14.137 c3.904,3.904,10.235,3.904,14.139,0C288.546,181.554,288.546,175.223,284.642,171.319z"></path> </g> </g> <g> <g> <path d="M355.337,242.013L341.2,227.876c-3.904-3.904-10.235-3.904-14.14,0c-3.904,3.904-3.904,10.235,0,14.14l14.137,14.137 c3.904,3.904,10.235,3.904,14.14,0C359.241,252.249,359.241,245.918,355.337,242.013z"></path> </g> </g> <g> <g> <path d="M348.267,178.386L334.13,164.25c-3.904-3.904-10.235-3.904-14.14,0c-3.904,3.904-3.904,10.235,0,14.14l14.137,14.137 c3.904,3.904,10.236,3.905,14.14,0C352.171,188.622,352.171,182.291,348.267,178.386z"></path> </g> </g> <g> <g> <path d="M291.71,234.944l-14.137-14.137c-3.904-3.904-10.235-3.904-14.14,0c-3.905,3.904-3.904,10.235,0,14.14l14.137,14.137 c3.904,3.904,10.235,3.904,14.14,0C295.614,245.179,295.614,238.849,291.71,234.944z"></path> </g> </g> <g> <g> <path d="M404.825,121.829l-14.137-14.137c-3.904-3.904-10.235-3.904-14.14,0c-3.904,3.904-3.904,10.235,0,14.14l14.137,14.137 c3.904,3.904,10.236,3.904,14.14,0S408.729,125.734,404.825,121.829z"></path> </g> </g> <g> <g> <path d="M447.243,79.417L433.096,65.28c-3.905-3.902-10.235-3.899-14.14,0.005c-3.903,3.906-3.9,10.236,0.005,14.14l14.147,14.137 c3.904,3.902,10.235,3.901,14.14-0.005C451.151,89.65,451.148,83.321,447.243,79.417z"></path> </g> </g> <g> <g> <path d="M341.2,114.761l-14.137-14.137c-3.904-3.904-10.235-3.904-14.14,0s-3.904,10.235,0,14.14L327.06,128.9 c3.903,3.904,10.235,3.905,14.14,0C345.104,124.996,345.104,118.666,341.2,114.761z"></path> </g> </g> <g> <g> <path d="M411.893,185.455l-14.137-14.137c-3.904-3.904-10.235-3.904-14.14,0c-3.905,3.904-3.904,10.235,0,14.14l14.137,14.137 c3.904,3.904,10.235,3.904,14.14,0C415.797,195.69,415.797,189.36,411.893,185.455z"></path> </g> </g> <g> </g> <g> </g> <g> </g> <g> </g> <g> </g> <g> </g> <g> </g> <g> </g> <g> </g> <g> </g> <g> </g> <g> </g> <g> </g> <g> </g> <g> </g> </svg> 