<?xml version="1.0" encoding="UTF-8"?> <svg xmlns="http://www.w3.org/2000/svg" height="512pt" viewBox="0 0 512 512" width="512pt"><path d="m397.648438 132.09375c-5.105469-73.695312-66.679688-132.09375-141.648438-132.09375-22.988281 0-45.828125 5.625-66.042969 16.261719-4.886719 2.574219-6.765625 8.621093-4.191406 13.507812 2.570313 4.886719 8.621094 6.765625 13.503906 4.191407 17.355469-9.132813 36.972657-13.960938 56.730469-13.960938 64.246094 0 117.046875 49.917969 121.667969 113.003906-10.859375 1.40625-21.386719 4.296875-31.476563 8.65625-24.070312-22.082031-56.003906-35.144531-90.191406-35.144531-34.71875 0-66.378906 13.347656-90.125 35.171875-10.109375-4.378906-20.660156-7.273438-31.539062-8.683594 1.164062-16.265625 5.5-31.847656 12.953124-46.433594 2.511719-4.917968.5625-10.941406-4.355468-13.457031-4.917969-2.511719-10.941406-.5625-13.453125 4.355469-8.769531 17.15625-13.832031 35.492188-15.132813 54.621094-63.453125 2.359375-114.347656 54.707031-114.347656 118.726562 0 30.300782 11.40625 59.15625 32.121094 81.25 19.511718 20.808594 45.511718 33.777344 73.652344 36.851563 19.082031 24.832031 52.273437 41.195312 98.792968 48.660156 6.554688 1.050781 12.003906 5.8125 13.882813 12.136719 5.011719 16.855468 7.550781 34.304687 7.550781 51.871094v20.414062c0 5.523438 4.476562 10 10 10h40c5.523438 0 10-4.476562 10-10v-20.417969c0-16.976562 2.371094-33.863281 7.050781-50.1875 1.9375-6.75 7.617188-11.738281 14.476563-12.707031 47.15625-6.640625 80.511718-23.195312 99.132812-49.199219.160156-.222656.304688-.445312.460938-.667969 27.789062-3.25 53.441406-16.160156 72.742187-36.738281 20.722657-22.097656 32.136719-50.957031 32.136719-81.265625 0-64.019531-50.898438-116.367187-114.351562-118.722656zm-92.910157 266.789062c-14.671875 2.066407-26.804687 12.664063-30.914062 27-5.191407 18.117188-7.824219 36.855469-7.824219 55.699219v10.417969h-20v-10.417969c0-19.492187-2.820312-38.863281-8.378906-57.566406-4.054688-13.644531-15.785156-23.925781-29.886719-26.1875-42.75-6.855469-72.253906-21.429687-87.730469-43.304687-.304687-.550782-.664062-1.070313-1.066406-1.550782-3.480469-5.226562-5.878906-10.402344-7.492188-15.257812 14.308594 7.214844 33.847657 8.167968 58.230469 2.820312 54.257813-11.890625 72.917969 33.683594 73.671875 35.589844 1.460938 3.800781 5.082032 6.335938 9.152344 6.40625l3.375.0625c4.042969.074219 7.757812-2.34375 9.371094-6.058594.832031-1.914062 20.996094-46.769531 74.804687-32.9375 24.207031 6.21875 43.785157 5.960938 58.328125-.75-1.058594 2.867188-2.40625 5.84375-4.09375 8.863282-1.621094 1.355468-2.800781 3.203124-3.308594 5.300781-.273437.394531-.542968.789062-.828124 1.179687-15.378907 21.1875-44.117188 34.878906-85.410157 40.691406zm-73.515625-67.316406c.09375-11.378906 2.363282-46.394531 24.742188-83.4375 20.070312 34.082032 23.851562 70.660156 24.558594 83.304688-4.355469 2.550781-8.15625 5.34375-11.414063 8.121094-6.171875 5.261718-10.9375 10.90625-14.449219 15.808593-3.339844-5.027343-7.917968-10.839843-13.914062-16.328125-2.753906-2.519531-5.929688-5.066406-9.523438-7.46875zm187.046875 14.839844c5.984375-18.796875 3.285157-33.800781 3.121094-34.664062-.921875-4.851563-5.195313-8.511719-10.152344-8.332032-4.902343.175782-8.921875 3.679688-9.539062 8.53125-.203125.875-1.8125 6.8125-8.71875 11.136719-6.960938 4.359375-20.925781 8.09375-47.949219 1.148437-17.738281-4.558593-32.679688-3.992187-45.011719-.820312-1.878906-20.617188-9.007812-62.5-35.949219-99.3125-1.886718-2.574219-4.882812-4.09375-8.070312-4.09375-.007812 0-.015625 0-.019531 0-3.199219.007812-6.199219 1.539062-8.074219 4.128906-28.226562 38.890625-34.925781 77.609375-36.355469 98.007813-12.425781-3.882813-27.714843-5.179688-46.160156-1.136719-27.226563 5.96875-41.0625 1.738281-47.878906-2.863281-6.785157-4.582031-8.195313-10.589844-8.371094-11.472657-.453125-4.871093-4.351563-8.507812-9.246094-8.84375-4.921875-.34375-9.339843 3.167969-10.421875 7.984376-.214844.949218-4.046875 18.839843 3.8125 40.488281-42.316406-11.332031-73.285156-50.167969-73.285156-95.476563 0-54.488281 44.328125-98.816406 98.816406-98.816406 11.214844 0 22.078125 1.835938 32.441406 5.449219-17.890624 22.691406-28.574218 51.316406-28.574218 82.386719 0 5.523437 4.476562 10 10 10 5.523437 0 10-4.476563 10-10 0-62.484376 50.832031-113.316407 113.316406-113.316407 31.101562 0 60.007812 12.71875 80.875 33.945313.109375.113281.21875.222656.332031.335937 11.394531 11.6875 20.371094 25.921875 25.933594 42.03125 1.804687 5.222657 7.496094 7.996094 12.71875 6.1875 5.21875-1.800781 7.988281-7.496093 6.1875-12.714843-4.953125-14.335938-12.207031-27.402344-21.242187-38.878907 10.34375-3.597656 21.183593-5.425781 32.378906-5.425781 54.488281 0 98.816406 44.328125 98.816406 98.816406 0 45.472656-31.183594 84.414063-73.730469 95.589844zm0 0"></path><path d="m379.273438 229.5c-5.523438.023438-9.980469 4.519531-9.957032 10.042969v.292969c0 5.523437 4.476563 10 10 10 5.523438 0 10-4.476563 10-10v-.378907c-.023437-5.523437-4.5-9.960937-10.042968-9.957031zm0 0"></path><path d="m162.121094 59.191406c2.640625 0 5.207031-1.0625 7.070312-2.929687 1.867188-1.863281 2.929688-4.433594 2.929688-7.070313 0-2.632812-1.0625-5.210937-2.929688-7.070312-1.863281-1.859375-4.429687-2.929688-7.070312-2.929688-2.632813 0-5.210938 1.070313-7.070313 2.929688s-2.921875 4.4375-2.921875 7.070312c0 2.628906 1.0625 5.207032 2.921875 7.070313 1.859375 1.867187 4.4375 2.929687 7.070313 2.929687zm0 0"></path></svg> 