<?xml version="1.0" encoding="UTF-8"?>  <svg xmlns="http://www.w3.org/2000/svg" xmlns:xlink="http://www.w3.org/1999/xlink" id="Capa_1" x="0px" y="0px" viewBox="0 0 512.001 512.001" style="enable-background:new 0 0 512.001 512.001;" xml:space="preserve"> <g> <g> <path d="M387.448,287.746h-0.205c-5.523,0-9.999,4.477-9.999,9.999c0,5.523,4.477,9.999,9.999,9.999h0.205 c5.523,0,9.999-4.477,9.999-9.999C397.447,292.223,392.971,287.746,387.448,287.746z"></path> </g> </g> <g> <g> <path d="M445.528,287.746h-0.205c-5.523,0-9.999,4.477-9.999,9.999c0,5.523,4.477,9.999,9.999,9.999h0.205 c5.523,0,9.999-4.477,9.999-9.999C455.528,292.223,451.051,287.746,445.528,287.746z"></path> </g> </g> <g> <g> <path d="M228.368,396.989h-0.13c-5.523,0-9.999,4.477-9.999,9.999s4.477,9.999,9.999,9.999h0.13c5.523,0,9.999-4.477,9.999-9.999 S233.89,396.989,228.368,396.989z"></path> </g> </g> <g> <g> <path d="M501.96,396.988H375.944v-25.885c0-8.202,1.687-16.215,4.925-23.628c2.199,3.185,3.201,7.046,3.201,13.69 c0,18.408,19.654,25.657,31.268,27.039c0.392,0.046,0.786,0.07,1.181,0.07c1.368,0,8.37-0.956,15.257-3.989 c14.959-6.589,17.193-17.314,17.193-23.12c0-12.378,3.434-15.124,11.73-21.757c3.068-2.453,6.544-5.233,10.164-8.852 c3.848-3.847,9.248-11.999,11.729-38.265c0.593-6.276,0.891-12.218,1.041-16.782c5.58-1.476,12.622-4.502,18.418-10.697 c7.307-7.812,10.618-18.381,9.84-31.41c-0.185-3.093-1.666-5.964-4.226-7.707c-2.561-1.744-5.66-2.241-8.603-1.281 c-3.003,0.858-6.043,0.771-9.036-0.26c-0.12-0.042-0.243-0.074-0.363-0.114c2.229-6.43,2.981-13.233,2.119-20.046 c-1.419-11.212-7.23-21.693-15.168-27.354c-2.978-2.124-6.88-2.451-10.171-0.855c-3.292,1.598-5.448,4.866-5.623,8.52 c-0.319,6.693-2.631,11.647-5.647,15.302l-3.972-12.302c-17.824-55.203-68.772-92.291-126.782-92.291H169.702h-20.537h-48.659 c-46.582,0-84.479,37.897-84.479,84.479v84.704C6.624,268.48,0,278.612,0,290.403c0,6.573,2.174,17.196,5.287,25.831 c5.126,14.221,12.104,21.431,20.739,21.431s15.614-7.21,20.739-21.431c3.113-8.635,5.287-19.257,5.287-25.831 c0-11.791-6.624-21.923-16.027-26.207v-84.704c0-30.182,20.847-55.577,48.897-62.566c-3.335,2.586-6.536,5.386-9.584,8.395 c-11.323,11.181-19.823,24.66-25.078,39.321c-0.132,0.288-0.253,0.584-0.359,0.889c-12.785,36.82-4.388,77.121,21.868,105.613 c0.009,0.01,0.017,0.019,0.026,0.029c0.369,0.4,0.728,0.806,1.104,1.201c0.089,0.094,0.187,0.176,0.28,0.265 c3.382,3.543,7.022,6.87,10.916,9.942c9.614,7.583,15.154,18.956,15.199,31.202l0.302,83.207H9.999 c-5.523,0-9.999,4.477-9.999,9.999c0,5.523,4.477,9.999,9.999,9.999h183.712c5.523,0,9.999-4.477,9.999-9.999 c0-5.523-4.477-9.999-9.999-9.999h-10.024v-25.886c0-11.799,3.481-23.21,10.067-32.998c4.725-7.021,8.228-14.644,10.495-22.718 h72.486c2.267,8.074,5.771,15.696,10.495,22.718c6.586,9.79,10.067,21.201,10.067,32.999v25.885h-34.987 c-5.523,0-9.999,4.477-9.999,9.999c0,5.523,4.477,9.999,9.999,9.999h44.976c0.003,0,0.006,0,0.01,0h29.312h0.022h29.312 c0.003,0,0.006,0,0.01,0H501.96c5.523,0,9.999-4.477,9.999-9.999C511.959,401.466,507.482,396.988,501.96,396.988z M26.026,314.205c-2.972-6.349-6.028-17.642-6.028-23.802c0-4.549,2.76-8.391,6.028-8.391c3.268,0,6.027,3.843,6.027,8.391 C32.053,296.564,28.998,307.857,26.026,314.205z M428.969,361.166c0,3.289-7.53,6.092-12.451,6.993 c-4.921-0.901-12.451-3.705-12.451-6.993c0-1.444-0.045-2.823-0.126-4.148h25.153 C429.013,358.343,428.969,359.722,428.969,361.166z M472.121,210.316c-0.121,3.842-1.191,8.497-4.409,13.314 c-1.617-1.373-3.287-2.673-4.999-3.905C466.097,217.169,469.339,214.061,472.121,210.316z M294.524,115.01 c-11.546,18.552-32.018,30.286-54.546,30.286c-22.527,0-43-11.734-54.546-30.286H294.524z M96.162,255.483H84.613 c-12.078-14.079-19.341-31.858-20.389-50.67c-0.464-8.325,0.306-16.586,2.211-24.538l18.239,3.344 c19.68,3.608,35.326,19.253,38.933,38.933c1.498,8.168-0.693,16.513-6.01,22.892C112.28,251.824,104.468,255.483,96.162,255.483z M355.945,371.103v25.885h-9.313v-25.885c0-0.237-0.019-0.468-0.035-0.701c-0.136-15.541-4.777-30.555-13.461-43.462 c-4.5-6.687-7.54-14.094-9.038-22.013l-7.912-41.834c-1.026-5.427-6.258-8.99-11.683-7.966c-5.427,1.026-8.993,6.257-7.966,11.683 l7.912,41.834c2.004,10.598,6.073,20.51,12.095,29.461c6.586,9.789,10.068,21.2,10.068,32.998v25.885h-9.313v-25.885 c0-15.79-4.659-31.06-13.474-44.163c-4.5-6.687-7.54-14.094-9.038-22.013l-7.912-41.834c-1.026-5.427-6.26-8.99-11.683-7.966 c-5.427,1.026-8.993,6.257-7.966,11.683l5.406,28.578h-64.271l5.405-28.578c1.026-5.427-2.541-10.657-7.966-11.683 c-5.425-1.028-10.657,2.54-11.683,7.966l-7.912,41.834c-1.499,7.92-4.54,15.327-9.038,22.013 c-8.814,13.101-13.474,28.373-13.474,44.163v25.885h-11.792v-25.885c0-11.799,3.482-23.209,10.068-32.999 c6.022-8.95,10.091-18.862,12.095-29.46l7.912-41.834c1.026-5.427-2.541-10.657-7.966-11.683 c-5.425-1.024-10.657,2.54-11.683,7.966l-7.912,41.834c-1.498,7.919-4.539,15.326-9.038,22.013 c-8.814,13.101-13.474,28.373-13.474,44.162v25.885h-12.304l-0.302-83.279c-0.053-14.547-5.29-28.261-14.62-38.997 c10.991-1.974,21.004-7.726,28.287-16.466c9.127-10.953,12.888-25.277,10.317-39.301c-5.096-27.8-27.197-49.902-54.998-54.998 l-14.796-2.711c4.078-7.946,9.419-15.282,15.905-21.686c16.025-15.825,37.254-24.54,59.776-24.54h13.722 c13.357,30.352,43.477,50.284,77.092,50.284s63.736-19.932,77.092-50.284h7.347c49.301,0,92.603,31.521,107.75,78.438 l4.523,14.008c-6.54-1.726-13.317-2.629-20.174-2.629c-8.234,0-16.358,1.288-24.089,3.76c-5.594-1.737-18.898-7.616-19.697-24.403 c-0.174-3.655-2.331-6.922-5.622-8.52c-3.291-1.598-7.192-1.271-10.172,0.854c-7.936,5.66-13.749,16.141-15.168,27.353 c-0.863,6.813-0.11,13.617,2.119,20.047c-2.755,0.814-5.545,0.843-8.301,0.065c-2.914-0.881-6.072-0.388-8.579,1.345 c-2.529,1.748-4.114,4.562-4.298,7.63c-0.778,13.03,2.533,23.598,9.84,31.411c5.258,5.622,11.538,8.628,16.826,10.241 c0.14,4.667,0.437,10.983,1.069,17.683c2.481,26.266,7.881,34.417,11.728,38.265c1.093,1.093,2.17,2.101,3.229,3.055 C359.203,345.108,355.945,357.922,355.945,371.103z M370.659,219.474c-1.651,1.174-3.252,2.426-4.815,3.731 c-0.088-0.024-0.175-0.053-0.263-0.077c-3.023-4.681-4.035-9.192-4.152-12.932C364.163,213.875,367.341,216.943,370.659,219.474z M360.596,256.473c-0.081-0.001-8.33-0.304-13.439-5.767c-1.602-1.712-2.783-3.847-3.542-6.389c2.521-0.291,5.023-0.857,7.469-1.7 c1.708-0.588,3.425-0.808,5.108-0.769c1.155-0.015,4.384,0.61,4.972,0.828c5.759,1.739,10.426,5.685,11.772,6.905 c1.691,2.278,2.539,4.271,2.916,5.346c0.899,4.6,4.947,8.072,9.809,8.072h0.205c5.523,0,9.999-4.477,9.999-9.999 c0-1.605-0.388-3.117-1.06-4.462c-0.932-2.729-2.691-6.717-5.939-11.047c-0.025-0.034-0.051-0.068-0.078-0.102l-0.442-0.574 l-0.01,0.008c-0.336-0.409-0.717-0.827-1.134-1.251c0.132,0.119,0.257,0.238,0.375,0.358c-0.146-0.148-0.295-0.292-0.447-0.43 c-0.563-0.567-1.206-1.143-1.875-1.717c9.329-5.813,20.157-8.958,31.263-8.958c11.582,0,22.865,3.416,32.457,9.717 c-0.543,0.478-1.064,0.955-1.531,1.427c-0.141,0.128-0.279,0.261-0.414,0.398c0.115-0.117,0.236-0.232,0.365-0.348 c-0.415,0.421-0.793,0.838-1.128,1.244l-0.01-0.008l-0.442,0.574c-0.027,0.036-0.054,0.071-0.081,0.107 c-3.116,4.156-4.861,7.994-5.821,10.71c-0.473,0.975-0.795,2.035-0.929,3.155c-0.062,0.275-0.105,0.491-0.13,0.63l0.079,0.014 c-0.01,0.185-0.028,0.367-0.028,0.554c0,5.523,4.477,9.999,9.999,9.999h0.205c4.87,0,8.921-3.483,9.812-8.091 c0.44-1.134,1.271-2.9,2.743-4.882c2.08-1.887,12.119-10.312,21.85-6.964c2.447,0.843,4.948,1.41,7.471,1.699 c-0.743,2.494-1.894,4.595-3.447,6.289c-5.119,5.581-13.543,5.868-13.535,5.869v0.012c-0.074-0.002-0.147-0.011-0.222-0.011 c-0.02,0-0.04,0-0.059,0c-5.522,0.031-9.972,4.534-9.942,10.055c0.12,21.91-3.247,45.476-7.061,49.442 c-2.835,2.835-5.721,5.143-8.512,7.374c-4.716,3.771-9.511,7.606-13.136,13.23h-37.109c-3.624-5.624-8.419-9.459-13.136-13.23 c-2.791-2.232-5.678-4.54-8.509-7.371c-3.567-3.707-6.738-24.522-7.042-45.108c0.783-1.413,1.235-3.036,1.247-4.766 C370.562,261.021,366.118,256.513,360.596,256.473z"></path> </g> </g> <g> </g> <g> </g> <g> </g> <g> </g> <g> </g> <g> </g> <g> </g> <g> </g> <g> </g> <g> </g> <g> </g> <g> </g> <g> </g> <g> </g> <g> </g> </svg> 