<?xml version="1.0" encoding="UTF-8"?> <svg xmlns="http://www.w3.org/2000/svg"
    xmlns:xlink="http://www.w3.org/1999/xlink" id="Layer_1" x="0px" y="0px" viewBox="0 0 374.3 373.3"
    style="enable-background:new 0 0 374.3 373.3;" xml:space="preserve">

    <g>
        <path class="st0" style="stroke: #000000;stroke-width: 3; stroke-miterlimit: 10;"
            d="M263,66.3c-2-0.9-4.3,0-5.2,2c-0.9,2,0,4.3,2,5.2c36.3,16.2,52.5,50.3,49.7,90.7 c-1.2,16.8-15.8,29.8-32.9,28.6c-16.8-1.2-29.8-15.8-28.6-32.9c1.6-23-9.2-33.5-28-33.5c-17,0-30.8-13.8-30.8-30.8 c0-17,13.9-30.8,30.9-30.8c3.6,0,13.4,0.4,25.4,3.7c2.1,0.6,4.2-0.7,4.8-2.7c0.6-2.1-0.7-4.2-2.7-4.8c-12.9-3.6-23.5-3.9-27.4-3.9 c-21.3,0-38.7,17.3-38.7,38.6c0,21.2,17.3,38.6,38.5,38.6c14.5,0.4,20.4,6.5,20.4,21c0,3.3-0.2,4.3-0.2,6.9 c0,20.2,15.8,37.1,35.9,38.5c21.4,1.5,39.7-14.8,41.2-35.8C320.3,121.2,302.6,84,263,66.3z">
        </path>
        <path class="st0" style="stroke: #000000;stroke-width: 3; stroke-miterlimit: 10;"
            d="M252.5,240.1c-14.8-0.4-21.5-6.6-20.2-25.2c1.6-22.2-16.2-41.3-38.6-41.3c-20.2,0-37.1,15.8-38.5,35.9 c-3.1,43.8,15,80.8,54.3,98.4c2,0.9,4.3,0,5.2-2c0.9-2,0-4.3-2-5.2c-36.7-16.4-52.5-50.8-49.7-90.7c1.2-16.8,15.8-29.8,32.9-28.6 c16.8,1.2,29.8,15.8,28.6,32.9c-1.4,20.6,6.6,32.9,27.5,33.5c0.2,0,0.3,0,0.4,0c17,0,30.8,13.8,30.8,30.8c0,17-13.9,30.8-30.9,30.8 c-3.6,0-13.4-0.4-25.4-3.7c-2.1-0.6-4.2,0.7-4.8,2.7c-0.6,2.1,0.7,4.2,2.7,4.8c12.9,3.6,23.5,3.9,27.4,3.9 c21.3,0,38.7-17.3,38.7-38.6C291.1,257.5,273.8,240.2,252.5,240.1z">
        </path>
        <path class="st0" style="stroke: #000000;stroke-width: 3; stroke-miterlimit: 10;"
            d="M153.8,110c-0.6-1.9-1.3-3.9-2-5.8c-0.8-2-3-3-5-2.3c-2,0.8-3,3-2.3,5c0.7,1.8,1.3,3.6,1.9,5.4 c2.6,8.4,4,16.9,4,25.2c0,25.2-12,48.9-34.8,68.7c-5.6,4.9-12.8,7.6-20.2,7.6c-8.9,0-17.4-3.9-23.2-10.6 c-4.9-5.6-7.6-12.8-7.6-20.2c0-8.9,3.9-17.4,10.6-23.2c9.1-7.9,13.5-15.6,13.5-23.4c0-6.6-3-13.1-9.3-19.7c0,0,0,0,0,0l0,0 c-0.1-0.1-0.2-0.2-0.2-0.2c0,0,0,0,0,0c-5.8-5.8-9-13.5-9-21.7c0-8.2,3.2-16,9-21.8c5.8-5.8,13.5-9,21.8-9c8.2,0,16,3.2,21.8,9.1 c2.6,2.6,9.2,9.7,15.4,20.6c1.1,1.9,3.5,2.5,5.3,1.5c1.9-1.1,2.5-3.5,1.5-5.3c-6.6-11.7-13.8-19.4-16.6-22.2 c-7.3-7.3-17.1-11.4-27.4-11.4c-10.3,0-20,4-27.3,11.3c-7.3,7.3-11.3,17-11.3,27.3c0,10.3,4,20,11.2,27.2c4.9,5.2,7.3,10,7.3,14.5 c0,5.5-3.5,11.2-10.8,17.5c-8.4,7.3-13.3,18-13.3,29.1c0,9.3,3.4,18.3,9.5,25.3c7.3,8.4,18,13.3,29.1,13.3c9.3,0,18.3-3.4,25.3-9.5 c24.5-21.3,37.5-47.1,37.5-74.6C158.1,128.4,156.6,119.2,153.8,110z">
        </path>
    </g>
</svg>