<svg width="375" height="374" viewBox="0 0 375 374" fill="none" xmlns="http://www.w3.org/2000/svg">
<path d="M263 66.3C261 65.4 258.7 66.3 257.8 68.3C256.9 70.3 257.8 72.6 259.8 73.5C296.1 89.7 312.3 123.8 309.5 164.2C308.3 181 293.7 194 276.6 192.8C259.8 191.6 246.8 177 248 159.9C249.6 136.9 238.8 126.4 220 126.4C203 126.4 189.2 112.6 189.2 95.6C189.2 78.6 203.1 64.8 220.1 64.8C223.7 64.8 233.5 65.2 245.5 68.5C247.6 69.1 249.7 67.8 250.3 65.8C250.9 63.7 249.6 61.6 247.6 61C234.7 57.4 224.1 57.1 220.2 57.1C198.9 57.1 181.5 74.4 181.5 95.7C181.5 116.9 198.8 134.3 220 134.3C234.5 134.7 240.4 140.8 240.4 155.3C240.4 158.6 240.2 159.6 240.2 162.2C240.2 182.4 256 199.3 276.1 200.7C297.5 202.2 315.8 185.9 317.3 164.9C320.3 121.2 302.6 84 263 66.3Z" fill="black" stroke="black" stroke-width="3" stroke-miterlimit="10"/>
<path d="M252.5 240.1C237.7 239.7 231 233.5 232.3 214.9C233.9 192.7 216.1 173.6 193.7 173.6C173.5 173.6 156.6 189.4 155.2 209.5C152.1 253.3 170.2 290.3 209.5 307.9C211.5 308.8 213.8 307.9 214.7 305.9C215.6 303.9 214.7 301.6 212.7 300.7C176 284.3 160.2 249.9 163 210C164.2 193.2 178.8 180.2 195.9 181.4C212.7 182.6 225.7 197.2 224.5 214.3C223.1 234.9 231.1 247.2 252 247.8C252.2 247.8 252.3 247.8 252.4 247.8C269.4 247.8 283.2 261.6 283.2 278.6C283.2 295.6 269.3 309.4 252.3 309.4C248.7 309.4 238.9 309 226.9 305.7C224.8 305.1 222.7 306.4 222.1 308.4C221.5 310.5 222.8 312.6 224.8 313.2C237.7 316.8 248.3 317.1 252.2 317.1C273.5 317.1 290.9 299.8 290.9 278.5C291.1 257.5 273.8 240.2 252.5 240.1Z" fill="black" stroke="black" stroke-width="3" stroke-miterlimit="10"/>
<path d="M153.8 110C153.2 108.1 152.5 106.1 151.8 104.2C151 102.2 148.8 101.2 146.8 101.9C144.8 102.7 143.8 104.9 144.5 106.9C145.2 108.7 145.8 110.5 146.4 112.3C149 120.7 150.4 129.2 150.4 137.5C150.4 162.7 138.4 186.4 115.6 206.2C110 211.1 102.8 213.8 95.4 213.8C86.5 213.8 78 209.9 72.2 203.2C67.3 197.6 64.6 190.4 64.6 183C64.6 174.1 68.5 165.6 75.2 159.8C84.3 151.9 88.7 144.2 88.7 136.4C88.7 129.8 85.7 123.3 79.4 116.7C79.3 116.6 79.2 116.5 79.2 116.5C73.4 110.7 70.2 103 70.2 94.8C70.2 86.6 73.4 78.8 79.2 73C85 67.2 92.7 64 101 64C109.2 64 117 67.2 122.8 73.1C125.4 75.7 132 82.8 138.2 93.7C139.3 95.6 141.7 96.2 143.5 95.2C145.4 94.1 146 91.7 145 89.9C138.4 78.2 131.2 70.5 128.4 67.7C121.1 60.4 111.3 56.3 101 56.3C90.7 56.3 81 60.3 73.7 67.6C66.4 74.9 62.4 84.6 62.4 94.9C62.4 105.2 66.4 114.9 73.6 122.1C78.5 127.3 80.9 132.1 80.9 136.6C80.9 142.1 77.4 147.8 70.1 154.1C61.7 161.4 56.8 172.1 56.8 183.2C56.8 192.5 60.2 201.5 66.3 208.5C73.6 216.9 84.3 221.8 95.4 221.8C104.7 221.8 113.7 218.4 120.7 212.3C145.2 191 158.2 165.2 158.2 137.7C158.1 128.4 156.6 119.2 153.8 110Z" fill="black" stroke="black" stroke-width="3" stroke-miterlimit="10"/>
</svg>
