<svg width="480" height="480" viewBox="0 0 480 480" fill="none" xmlns="http://www.w3.org/2000/svg">
<path d="M56.043 200C57.625 199.992 59.207 199.82 60.7539 199.488L56.0977 239.062L56.043 248C56.043 303.656 105.801 358.152 168.266 372.305C170.168 389.902 183.426 404.152 200.844 407.312L200.145 464H168.043V480H215.938L216.273 453.062L236.465 463.199L243.617 448.879L216.5 435.281L216.859 406.594C220.699 405.398 224.309 403.555 227.531 401.145C241.531 390.664 248.059 380.145 248.012 367.734C303.211 348.441 344.012 297.992 344.012 248H448.043V240C447.984 198.184 418.555 162.16 377.586 153.77L419.355 112L413.699 106.344C397.43 89.832 375.223 80.5352 352.043 80.5352C328.863 80.5352 306.652 89.832 290.387 106.344C272.66 124.07 264.043 149.48 264.043 184V232H184.043V112C184.258 96.7773 178.242 82.1289 167.387 71.457C187.008 69.0391 201.336 51.7305 200.043 32C200.043 27.582 196.461 24 192.043 24H165.641C158.82 9.38672 144.168 0.0351562 128.043 0C123.625 0 120.043 3.58203 120.043 8V32.207C113.16 26.9141 104.727 24.0312 96.043 24H48.043C43.625 24 40.043 27.582 40.043 32C40.0703 54.082 57.9609 71.9727 80.043 72H86.2031C79.9102 78.4102 75.5234 86.4414 73.5313 95.1992C62.625 94.0391 51.668 96.8828 42.707 103.199C35.4844 109.355 31.543 118.523 32.043 128C32.043 132.418 35.625 136 40.043 136H57.4492C45.6406 147.848 32.043 164 32.043 176C32.043 189.254 42.7891 200 56.043 200V200ZM431.594 232H288.492C290.207 216.598 296.867 202.164 307.473 190.863L307.617 191.16C318.211 186.457 330.152 185.762 341.219 189.207C354.168 194.906 364.137 205.766 368.707 219.152L383.41 212.848C377.188 195.355 363.859 181.312 346.715 174.184C343.691 173.086 340.574 172.266 337.402 171.727C358 164.824 380.621 167.617 398.918 179.328C417.219 191.039 429.234 210.402 431.594 232ZM301.699 117.656C327.133 91.6289 368.223 89.3086 396.426 112.305L356.555 152.176C323.406 153.508 293.824 173.375 280.043 203.551V186.047C294.855 160.223 322.273 144.215 352.043 144V128C325.84 127.805 300.695 138.332 282.441 157.137C284.68 142.32 291.402 128.543 301.699 117.656ZM328.043 248C328.043 292.344 288.113 339.105 237.145 354.457L230.266 356.52L231.578 363.586C232.793 370.039 232.73 377.273 217.977 388.328C215.336 390.461 212.109 391.738 208.723 392C202.246 392.141 195.977 389.695 191.305 385.207C186.598 380.645 183.992 374.332 184.105 367.777C184.172 367.305 184.227 366.832 184.258 366.344L184.785 359.145L177.691 357.879C120.418 347.672 72.043 297.352 72.043 248V240.473L72.7305 234.625L104.043 203.312L136.043 235.312L168.043 203.312V248H328.043ZM168.043 112V180.688L136.043 212.688L104.043 180.688L75.7461 208.984L86.3047 119.238L87.9883 104.938V104.734C89.875 84.2305 104.844 72 128.043 72C138.762 71.6289 149.152 75.7227 156.738 83.3047C164.32 90.8906 168.414 101.281 168.043 112ZM136.043 17.3281C143.898 19.8398 149.988 26.0898 152.297 34.0078C153.215 37.5352 156.398 40 160.043 40H183.051C180.566 50.4062 170.664 57.293 160.043 56H136.043V17.3281ZM57.4102 40H96.043C106.211 40.0117 115.273 46.418 118.676 56H80.043C69.875 55.9883 60.8125 49.582 57.4102 40ZM52.8438 115.617C58.2734 112.109 64.7266 110.527 71.1641 111.121L70.0977 120H49.5078C50.2539 118.293 51.3984 116.793 52.8438 115.617ZM66.6172 149.602L63.6328 174.961C63.1445 179.129 60.8438 184 56.043 184C51.625 184 48.043 180.418 48.043 176C48.043 171.152 56.2031 160.414 66.6172 149.602Z" fill="black"/>
<path d="M104.043 96H120.043V112H104.043V96Z" fill="black"/>
<path d="M148.484 305.344L139.602 318.656L163.602 334.656C166.289 336.449 169.793 336.449 172.484 334.656L196.484 318.656L187.602 305.344L168.043 318.398L148.484 305.344Z" fill="black"/>
<path d="M219.602 318.656L243.602 334.656C246.289 336.449 249.793 336.449 252.484 334.656L276.484 318.656L267.602 305.344L248.043 318.398L228.484 305.359L219.602 318.656Z" fill="black"/>
<path d="M208.043 296C209.621 296 211.168 295.531 212.484 294.656L236.484 278.656L227.602 265.344L208.043 278.398L188.484 265.359L179.602 278.672L203.602 294.672C204.918 295.543 206.465 296.004 208.043 296Z" fill="black"/>
<path d="M147.602 265.344L128.043 278.398L108.484 265.359L99.6016 278.672L123.602 294.672C126.289 296.465 129.793 296.465 132.484 294.672L156.484 278.672L147.602 265.344Z" fill="black"/>
<path d="M280.043 296C281.621 296 283.168 295.531 284.484 294.656L308.484 278.656L299.602 265.344L280.043 278.398L260.484 265.359L251.602 278.672L275.602 294.672C276.918 295.543 278.465 296.004 280.043 296Z" fill="black"/>
</svg>
