<?xml version="1.0" encoding="UTF-8"?> <svg xmlns="http://www.w3.org/2000/svg" height="480pt" viewBox="-32 0 480 480" width="480pt"><path d="m24.042969 200c1.582031-.007812 3.164062-.179688 4.710937-.511719l-4.65625 39.574219-.054687 8.9375c0 55.65625 49.757812 110.152344 112.222656 124.304688 1.902344 17.597656 15.160156 31.847656 32.578125 35.007812l-.699219 56.6875h-32.101562v16h47.894531l.335938-26.9375 20.191406 10.136719 7.152344-14.320313-27.117188-13.597656.359375-28.6875c3.839844-1.195312 7.449219-3.039062 10.671875-5.449219 14-10.480469 20.527344-21 20.480469-33.410156 55.199219-19.292969 96-69.742187 96-119.734375h104.03125v-8c-.058594-41.816406-29.488281-77.839844-70.457031-86.230469l41.769531-41.769531-5.65625-5.65625c-16.269531-16.511719-38.476563-25.808594-61.65625-25.808594-23.179688 0-45.390625 9.296875-61.65625 25.808594-17.726563 17.726562-26.34375 43.136719-26.34375 77.65625v48h-80v-120c.214843-15.222656-5.800781-29.871094-16.65625-40.542969 19.621093-2.417969 33.949219-19.726562 32.65625-39.457031 0-4.417969-3.582031-8-8-8h-26.402344c-6.820313-14.613281-21.472656-23.9648438-37.597656-24-4.417969 0-8 3.582031-8 8v24.207031c-6.882813-5.292969-15.316407-8.175781-24-8.207031h-48c-4.417969 0-8 3.582031-8 8 .027343 22.082031 17.917969 39.972656 40 40h6.160156c-6.292969 6.410156-10.679687 14.441406-12.671875 23.199219-10.90625-1.160157-21.863281 1.683593-30.824219 8-7.222656 6.15625-11.164062 15.324219-10.6640622 24.800781 0 4.417969 3.5820312 8 8.0000002 8h17.40625c-11.808594 11.847656-25.4062502 28-25.4062502 40 0 13.253906 10.7460932 24 24.0000002 24zm375.550781 32h-143.101562c1.714843-15.402344 8.375-29.835938 18.980468-41.136719l.144532.296875c10.59375-4.703125 22.535156-5.398437 33.601562-1.953125 12.949219 5.699219 22.917969 16.558594 27.488281 29.945313l14.703125-6.304688c-6.222656-17.492187-19.550781-31.535156-36.695312-38.664062-3.023438-1.097656-6.140625-1.917969-9.3125-2.457032 20.597656-6.902343 43.21875-4.109374 61.515625 7.601563 18.300781 11.710937 30.316406 31.074219 32.675781 52.671875zm-129.894531-114.34375c25.433593-26.027344 66.523437-28.347656 94.726562-5.351562l-39.871093 39.871093c-33.148438 1.332031-62.730469 21.199219-76.511719 51.375v-17.503906c14.8125-25.824219 42.230469-41.832031 72-42.046875v-16c-26.203125-.195312-51.347657 10.332031-69.601563 29.136719 2.238282-14.816407 8.960938-28.59375 19.257813-39.480469zm26.34375 130.34375c0 44.34375-39.929688 91.105469-90.898438 106.457031l-6.878906 2.0625 1.3125 7.066407c1.214844 6.453124 1.152344 13.6875-13.601563 24.742187-2.640624 2.132813-5.867187 3.410156-9.253906 3.671875-6.476562.140625-12.746094-2.304688-17.417968-6.792969-4.707032-4.5625-7.3125-10.875-7.199219-17.429687.066406-.472656.121093-.945313.152343-1.433594l.527344-7.199219-7.09375-1.265625c-57.273437-10.207031-105.648437-60.527344-105.648437-109.878906v-7.527344l.6875-5.847656 31.3125-31.3125 32 32 32-32v44.6875zm-160-136v68.6875l-32 32-32-32-28.296875 28.296875 10.558594-89.746094 1.683593-14.300781v-.203125c1.886719-20.503906 16.855469-32.734375 40.054688-32.734375 10.71875-.371094 21.109375 3.722656 28.695312 11.304688 7.582031 7.585937 11.675781 17.976562 11.304688 28.695312zm-32-94.671875c7.855469 2.511719 13.945312 8.761719 16.253906 16.679687.917969 3.527344 4.101563 5.992188 7.746094 5.992188h23.007812c-2.484375 10.40625-12.386719 17.292969-23.007812 16h-24zm-78.632813 22.671875h38.632813c10.167969.011719 19.230469 6.417969 22.632812 16h-38.632812c-10.167969-.011719-19.230469-6.417969-22.632813-16zm-4.566406 75.617188c5.429688-3.507813 11.882812-5.089844 18.320312-4.496094l-1.066406 8.878906h-20.589844c.746094-1.707031 1.890626-3.207031 3.335938-4.382812zm13.773438 33.984374-2.984376 25.359376c-.488281 4.167968-2.789062 9.039062-7.589843 9.039062-4.417969 0-8-3.582031-8-8 0-4.847656 8.160156-15.585938 18.574219-26.398438zm0 0"></path><path d="m72.042969 96h16v16h-16zm0 0"></path><path d="m116.484375 305.34375-8.882813 13.3125 24 16c2.6875 1.792969 6.191407 1.792969 8.882813 0l24-16-8.882813-13.3125-19.558593 13.054688zm0 0"></path><path d="m187.601562 318.65625 24 16c2.6875 1.792969 6.191407 1.792969 8.882813 0l24-16-8.882813-13.3125-19.558593 13.054688-19.558594-13.039063zm0 0"></path><path d="m176.042969 296c1.578125 0 3.125-.46875 4.441406-1.34375l24-16-8.882813-13.3125-19.558593 13.054688-19.558594-13.039063-8.882813 13.3125 24 16c1.316407.871094 2.863282 1.332031 4.441407 1.328125zm0 0"></path><path d="m115.601562 265.34375-19.558593 13.054688-19.558594-13.039063-8.882813 13.3125 24 16c2.6875 1.792969 6.191407 1.792969 8.882813 0l24-16zm0 0"></path><path d="m248.042969 296c1.578125 0 3.125-.46875 4.441406-1.34375l24-16-8.882813-13.3125-19.558593 13.054688-19.558594-13.039063-8.882813 13.3125 24 16c1.316407.871094 2.863282 1.332031 4.441407 1.328125zm0 0"></path></svg> 