<?xml version="1.0" encoding="UTF-8"?> <!-- Generator: Adobe Illustrator 23.0.0, SVG Export Plug-In . SVG Version: 6.00 Build 0) --> <svg xmlns="http://www.w3.org/2000/svg" xmlns:xlink="http://www.w3.org/1999/xlink" id="Layer_1" x="0px" y="0px" viewBox="0 0 374.3 373.3" style="enable-background:new 0 0 374.3 373.3;" xml:space="preserve"> <g> <path d="M14.5,185.7l78.7,49.2L82,296.7c-0.3,1.7,0.2,3.5,1.3,4.8c1.1,1.3,2.8,2.1,4.5,2.1h23.4c2.1,0,4.1-1.2,5.1-3l23.3-42 c1.1-2,2.1-4.1,2.9-6.3c16.2,2.7,32.7,4.1,49.1,4.1c27,0,53.8-3.6,79.9-10.8c5.4,3.1,11.2,5.3,17.3,6.4l20.5,3.7l-5.2,41.3 c-0.2,1.7,0.3,3.3,1.4,4.6c1.1,1.3,2.7,2,4.4,2h29.2c2.7,0,5-1.8,5.7-4.4l17.5-70.2c0.6-2.4-0.4-4.9-2.4-6.3l-14.9-10v-67 c0-42-34.1-76-76-76H52.7c-3.2,0-5.8,2.6-5.8,5.8c0,12.2,5.5,23.7,14.9,31.4c-1.5,2.5-2.8,5.1-4,7.7l-7,19.4 c-1.4,4-4.9,6.9-9.1,7.5l-25,4.2c-2.8,0.5-4.9,2.9-4.9,5.8v29.2C11.8,182.8,12.8,184.7,14.5,185.7z M23.5,156.5l20.1-3.3 c8.3-1.4,15.2-7.2,18.1-15.1l6.9-19c1-2.1,2.1-4.2,3.3-6.2l0.7,0.3c11.4,5.1,24.5,4.2,35-2.5c0.2-0.1,0.4-0.3,0.6-0.4l2.1-1.7 c2.5-2,2.9-5.7,0.9-8.2l0,0c-2-2.5-5.7-2.9-8.2-0.9l-1.9,1.5c-7.2,4.4-16.1,5-23.8,1.5l-2.5-1.1c-8.1-3.8-14-11.2-15.7-20h64.1v0.1 c1.3-0.1,2.6-0.1,3.9-0.1H269c35.5,0,64.3,28.8,64.3,64.3l0,8.5c0,4.7-3.5,8.8-8.2,9.1c-5.1,0.3-9.4-3.7-9.4-8.8 c0-11.3-9.2-20.5-20.5-20.5h-2.9c-3.2,0-5.8,2.6-5.8,5.8v0c0,3.2,2.6,5.8,5.8,5.8h3.1c4.8,0,8.5,3.9,8.5,8.8 c0,11.3,9.2,20.5,20.5,20.5c3,0,6-0.7,8.8-2.1v43c0,2,1,3.8,2.6,4.9l14.1,9.4l-15.4,61.7h-18l5-40.2c0.4-3.1-1.7-5.9-4.8-6.5 l-25.9-4.7c-17.8-3.2-31.1-17.7-33.3-35.2c-0.4-2.9-2.9-5-5.8-5h0c-3.5,0-6.2,3.1-5.8,6.6c1.4,11,6.3,21.4,14,29.6 c-37.5,9.1-76.4,10.6-114.5,4.5c0.4-2.6,0.6-5.2,0.7-7.9v-28.8c0-3.2-2.6-5.8-5.8-5.8l0,0c-3.2,0-5.8,2.6-5.8,5.8V233 c0,7-1.8,13.8-5.2,19.9l-21.7,39H94.8l10.4-57.4c0.1-0.3,0.1-0.7,0.1-1v-29.2c0-3.2-2.6-5.8-5.8-5.8h0c-3.2,0-5.8,2.6-5.8,5.8v17.2 l-70.2-43.9V156.5z"></path> </g> </svg> 