<svg width="375" height="374" viewBox="0 0 375 374" fill="none" xmlns="http://www.w3.org/2000/svg">
<path d="M14.5 185.7L93.2 234.9L82 296.7C81.7 298.4 82.2 300.2 83.3 301.5C84.4 302.8 86.1 303.6 87.8 303.6H111.2C113.3 303.6 115.3 302.4 116.3 300.6L139.6 258.6C140.7 256.6 141.7 254.5 142.5 252.3C158.7 255 175.2 256.4 191.6 256.4C218.6 256.4 245.4 252.8 271.5 245.6C276.9 248.7 282.7 250.9 288.8 252L309.3 255.7L304.1 297C303.9 298.7 304.4 300.3 305.5 301.6C306.6 302.9 308.2 303.6 309.9 303.6H339.1C341.8 303.6 344.1 301.8 344.8 299.2L362.3 229C362.9 226.6 361.9 224.1 359.9 222.7L345 212.7V145.7C345 103.7 310.9 69.7 269 69.7H52.7001C49.5001 69.7 46.9001 72.3 46.9001 75.5C46.9001 87.7 52.4 99.2 61.8 106.9C60.3 109.4 59 112 57.8 114.6L50.8 134C49.4 138 45.9001 140.9 41.7001 141.5L16.7 145.7C13.9 146.2 11.8 148.6 11.8 151.5V180.7C11.8 182.8 12.8 184.7 14.5 185.7ZM23.5 156.5L43.6 153.2C51.9 151.8 58.8001 146 61.7001 138.1L68.6 119.1C69.6 117 70.7001 114.9 71.9001 112.9L72.6 113.2C84 118.3 97.1 117.4 107.6 110.7C107.8 110.6 108 110.4 108.2 110.3L110.3 108.6C112.8 106.6 113.2 102.9 111.2 100.4C109.2 97.9 105.5 97.5 103 99.5L101.1 101C93.9 105.4 85 106 77.3 102.5L74.8001 101.4C66.7001 97.6 60.8 90.2 59.1 81.4H123.2V81.5C124.5 81.4 125.8 81.4 127.1 81.4H269C304.5 81.4 333.3 110.2 333.3 145.7V154.2C333.3 158.9 329.8 163 325.1 163.3C320 163.6 315.7 159.6 315.7 154.5C315.7 143.2 306.5 134 295.2 134H292.3C289.1 134 286.5 136.6 286.5 139.8C286.5 143 289.1 145.6 292.3 145.6H295.4C300.2 145.6 303.9 149.5 303.9 154.4C303.9 165.7 313.1 174.9 324.4 174.9C327.4 174.9 330.4 174.2 333.2 172.8V215.8C333.2 217.8 334.2 219.6 335.8 220.7L349.9 230.1L334.5 291.8H316.5L321.5 251.6C321.9 248.5 319.8 245.7 316.7 245.1L290.8 240.4C273 237.2 259.7 222.7 257.5 205.2C257.1 202.3 254.6 200.2 251.7 200.2C248.2 200.2 245.5 203.3 245.9 206.8C247.3 217.8 252.2 228.2 259.9 236.4C222.4 245.5 183.5 247 145.4 240.9C145.8 238.3 146 235.7 146.1 233V204.2C146.1 201 143.5 198.4 140.3 198.4C137.1 198.4 134.5 201 134.5 204.2V233C134.5 240 132.7 246.8 129.3 252.9L107.6 291.9H94.8L105.2 234.5C105.3 234.2 105.3 233.8 105.3 233.5V204.3C105.3 201.1 102.7 198.5 99.5 198.5C96.3 198.5 93.7 201.1 93.7 204.3V221.5L23.5 177.6V156.5Z" fill="black"/>
</svg>
