<svg width="375" height="374" viewBox="0 0 375 374" fill="none" xmlns="http://www.w3.org/2000/svg">
<path d="M250.4 55.3C215.2 55.3 186 82 182.6 116.6C147.4 118.8 119.3 146.9 117 182.2C82.2999 185.6 55.7 214.7 55.7 250V310.7C55.7 314.8 58.9999 318.1 63.0999 318.1H123.8C159 318.1 188.2 291.4 191.6 256.8C205.4 255.9 218.7 251 229.6 242.6C231.3 241.3 231.6 238.7 230.2 237C228.9 235.4 226.6 235.2 224.9 236.5C215.4 243.8 203.9 248.1 191.9 249V241.5C191.9 239.4 190.2 237.7 188.1 237.7C186 237.7 184.3 239.4 184.3 241.5V252.9C182.7 285.1 156.2 310.3 124 310.3H63.5V249.9C63.5 218.9 86.7 193.3 117 189.9V197.3C117 199.4 118.7 201.1 120.8 201.1C122.9 201.1 124.6 199.4 124.6 197.3V185.8C125.1 153.3 150.2 126.8 182.3 124.4V131.9C182.3 134 184 135.7 186.1 135.7C188.2 135.7 189.9 134 189.9 131.9V120.5C191.5 88.3 218 63.1 250.2 63.1H310.6V123.5C310.6 154.5 287.4 180.1 257.1 183.5V176C257.1 173.9 255.4 172.2 253.3 172.2C251.2 172.2 249.5 173.9 249.5 176V187.5C249.3 200.9 244.8 213.9 236.8 224.4C235.6 226 235.8 228.3 237.3 229.6L237.4 229.7C239 231.1 241.6 230.9 242.9 229.1C251.3 218.1 256.2 204.9 257.1 191C291.8 187.6 318.4 158.5 318.4 123.2V61.9C318.4 58.2 315.4 55.3 311.8 55.3H250.4Z" fill="black" stroke="black" stroke-width="3" stroke-miterlimit="10"/>
<path d="M280.7 149.3C294 132.9 292.4 108.4 275.8 94C260.9 81 238.3 81 223.4 94C205.7 109.4 205 136.2 221.3 152.5C233.8 165 252.9 167.7 268.1 159.7C270.1 158.6 270.7 156.1 269.5 154.2C268.4 152.6 266.3 152 264.5 152.9C252.2 159.4 236.8 157.2 226.7 147.1C214.1 134.5 214.1 114.1 226.7 101.5C239.3 88.9 259.7 88.9 272.3 101.5C284.1 113.3 284.9 131.9 274.6 144.6C273.4 146.1 273.5 148.3 274.9 149.7C276.6 151.2 279.3 151.1 280.7 149.3Z" fill="black"/>
<path d="M215.4 214.9C231 199.3 231 174 215.4 158.4C199.8 142.8 174.5 142.8 158.9 158.4C143.3 174 143.3 199.3 158.9 214.9C174.5 230.5 199.8 230.5 215.4 214.9ZM166 162.3C178 151.8 196.2 151.8 208.3 162.3C222.5 174.7 223.1 196.4 210 209.5C197.4 222.1 176.9 222.1 164.4 209.5C151.2 196.3 151.8 174.6 166 162.3Z" fill="black"/>
<path d="M121.7 212.1C99.6 212.1 81.7 230 81.7 252.1C81.7 274.3 99.7 292.1 121.7 292.1C143.7 292.1 161.7 274.3 161.7 252.1C161.7 230 143.8 212.1 121.7 212.1ZM144.5 274.9C131.9 287.5 111.4 287.5 98.9 274.9C92.8 268.8 89.4 260.7 89.4 252.1C89.4 234.3 103.8 219.8 121.7 219.8C139.5 219.8 154 234.2 154 252.1C154 260.7 150.6 268.8 144.5 274.9Z" fill="black"/>
<path d="M207.4 190.9L206.9 190.8C205.2 190.4 204 188.9 204 187.1V187C204 185.2 205.3 183.7 207 183.4L207.5 183.3C209.7 182.9 211.7 184.7 211.7 186.9C211.7 187.1 211.7 187.2 211.7 187.4C211.6 189.6 209.6 191.3 207.4 190.9ZM201.1 177.2C201.1 177.1 201.1 177.1 201.1 177.2C200 175.6 200.1 173.7 201.4 172.4L201.7 172.1C203.3 170.5 205.9 170.8 207.2 172.6C207.3 172.7 207.4 172.9 207.5 173C208.8 174.9 208 177.4 206 178.4L205.6 178.6C204 179.3 202.1 178.6 201.1 177.2Z" fill="black"/>
</svg>
