<?xml version="1.0" encoding="UTF-8"?>
<!-- Generator: Adobe Illustrator 23.0.0, SVG Export Plug-In . SVG Version: 6.00 Build 0) --> <svg
    xmlns="http://www.w3.org/2000/svg" xmlns:xlink="http://www.w3.org/1999/xlink" id="Layer_1" x="0px" y="0px"
    viewBox="0 0 374.3 373.3" style="enable-background:new 0 0 374.3 373.3;" xml:space="preserve">
    <g>
        <g>
            <g>
                <path class="st0"
                style="stroke: #000000;stroke-width: 3; stroke-miterlimit: 10;"
                    d="M250.4,55.3c-35.2,0-64.4,26.7-67.8,61.3c-35.2,2.2-63.3,30.3-65.6,65.6c-34.7,3.4-61.3,32.5-61.3,67.8v60.7 c0,4.1,3.3,7.4,7.4,7.4h60.7c35.2,0,64.4-26.7,67.8-61.3c13.8-0.9,27.1-5.8,38-14.2c1.7-1.3,2-3.9,0.6-5.6l0,0 c-1.3-1.6-3.6-1.8-5.3-0.5c-9.5,7.3-21,11.6-33,12.5v-7.5c0-2.1-1.7-3.8-3.8-3.8h0c-2.1,0-3.8,1.7-3.8,3.8v11.4 c-1.6,32.2-28.1,57.4-60.3,57.4H63.5v-60.4c0-31,23.2-56.6,53.5-60v7.4c0,2.1,1.7,3.8,3.8,3.8h0c2.1,0,3.8-1.7,3.8-3.8v-11.5 c0.5-32.5,25.6-59,57.7-61.4v7.5c0,2.1,1.7,3.8,3.8,3.8h0c2.1,0,3.8-1.7,3.8-3.8v-11.4c1.6-32.2,28.1-57.4,60.3-57.4h60.4v60.4 c0,31-23.2,56.6-53.5,60V176c0-2.1-1.7-3.8-3.8-3.8l0,0c-2.1,0-3.8,1.7-3.8,3.8v11.5c-0.2,13.4-4.7,26.4-12.7,36.9 c-1.2,1.6-1,3.9,0.5,5.2l0.1,0.1c1.6,1.4,4.2,1.2,5.5-0.6c8.4-11,13.3-24.2,14.2-38.1c34.7-3.4,61.3-32.5,61.3-67.8V61.9 c0-3.7-3-6.6-6.6-6.6H250.4z">
                </path>
                <path class="st0"
                    d="M280.7,149.3c13.3-16.4,11.7-40.9-4.9-55.3c-14.9-13-37.5-13-52.4,0c-17.7,15.4-18.4,42.2-2.1,58.5 c12.5,12.5,31.6,15.2,46.8,7.2c2-1.1,2.6-3.6,1.4-5.5l0,0c-1.1-1.6-3.2-2.2-5-1.3c-12.3,6.5-27.7,4.3-37.8-5.8 c-12.6-12.6-12.6-33,0-45.6c12.6-12.6,33-12.6,45.6,0c11.8,11.8,12.6,30.4,2.3,43.1c-1.2,1.5-1.1,3.7,0.3,5.1l0,0 C276.6,151.2,279.3,151.1,280.7,149.3z">
                </path>
                <path class="st0"
                    d="M215.4,214.9c15.6-15.6,15.6-40.9,0-56.5c-15.6-15.6-40.9-15.6-56.5,0c-15.6,15.6-15.6,40.9,0,56.5 C174.5,230.5,199.8,230.5,215.4,214.9z M166,162.3c12-10.5,30.2-10.5,42.3,0c14.2,12.4,14.8,34.1,1.7,47.2 c-12.6,12.6-33.1,12.6-45.6,0C151.2,196.3,151.8,174.6,166,162.3z">
                </path>
                <path class="st0"
                    d="M121.7,212.1c-22.1,0-40,17.9-40,40c0,22.2,18,40,40,40c22,0,40-17.8,40-40 C161.7,230,143.8,212.1,121.7,212.1z M144.5,274.9c-12.6,12.6-33.1,12.6-45.6,0c-6.1-6.1-9.5-14.2-9.5-22.8 c0-17.8,14.4-32.3,32.3-32.3c17.8,0,32.3,14.4,32.3,32.3C154,260.7,150.6,268.8,144.5,274.9z">
                </path>
            </g>
            <g>
                <path class="st0"
                    d="M207.4,190.9l-0.5-0.1c-1.7-0.4-2.9-1.9-2.9-3.7c0,0,0-0.1,0-0.1c0-1.8,1.3-3.3,3-3.6l0.5-0.1 c2.2-0.4,4.2,1.4,4.2,3.6c0,0.2,0,0.3,0,0.5C211.6,189.6,209.6,191.3,207.4,190.9z M201.1,177.2 C201.1,177.1,201.1,177.1,201.1,177.2c-1.1-1.6-1-3.5,0.3-4.8l0.3-0.3c1.6-1.6,4.2-1.3,5.5,0.5c0.1,0.1,0.2,0.3,0.3,0.4 c1.3,1.9,0.5,4.4-1.5,5.4l-0.4,0.2C204,179.3,202.1,178.6,201.1,177.2z">
                </path>
            </g>
        </g>
    </g>
</svg>