<?xml version="1.0" encoding="UTF-8"?> <!-- Generator: Adobe Illustrator 23.0.0, SVG Export Plug-In . SVG Version: 6.00 Build 0) --> <svg xmlns="http://www.w3.org/2000/svg" xmlns:xlink="http://www.w3.org/1999/xlink" id="Layer_1" x="0px" y="0px" viewBox="0 0 374.3 373.3" style="enable-background:new 0 0 374.3 373.3;" xml:space="preserve"> <g> <path d="M270.5,63.7c2.9,0,5.2-2.3,5.2-5.2s-2.3-5.2-5.2-5.2c-2.9,0-5.2,2.3-5.2,5.2S267.6,63.7,270.5,63.7z"></path> <path d="M187.1,63.7c2.9,0,5.2-2.3,5.2-5.2s-2.3-5.2-5.2-5.2s-5.2,2.3-5.2,5.2S184.3,63.7,187.1,63.7z"></path> <path d="M98.6,58.5c0,2.9,2.3,5.2,5.2,5.2s5.2-2.3,5.2-5.2s-2.3-5.2-5.2-5.2S98.6,55.6,98.6,58.5z"></path> <path d="M72.5,84.5c-2.9,0-5.2,2.3-5.2,5.2v137.1c0,15.7,7.8,30.3,20.9,39l10.4,6.9v42c0,2.9,2.3,5.2,5.2,5.2 c2.9,0,5.2-2.3,5.2-5.2v-42l10.4-6.9c13.1-8.7,20.9-23.3,20.9-39c0-49.3,0-105.3,0-137.1c0-2.9-2.3-5.2-5.2-5.2 c-2.9,0-5.2,2.3-5.2,5.2v31.6L109,135.2V79.3c0-2.9-2.3-5.2-5.2-5.2c-2.9,0-5.2,2.3-5.2,5.2v55.9l-20.8-13.9V89.7 C77.7,86.8,75.4,84.5,72.5,84.5z M109,150.5c0-1.7,0.9-3.4,2.3-4.3l18.5-12.3V163L109,176.9V150.5z M109,192.2 c0-1.7,0.9-3.4,2.3-4.3l0,0c0,0,0,0,0,0l18.5-12.3v29.2L109,218.6V192.2z M109,233.9c0-1.7,0.9-3.4,2.3-4.3l0,0c0,0,0,0,0,0 l18.5-12.3v9.6c0,12.2-6.1,23.6-16.2,30.3l-4.6,3.1V233.9z M98.6,260.3l-4.6-3.1c-10.2-6.8-16.2-18.1-16.2-30.3v-9.6l18.5,12.3 c0,0,0,0,0,0l0,0c1.5,1,2.3,2.6,2.3,4.3V260.3z M98.6,218.6l-20.8-13.9v-29.2l18.5,12.3c0,0,0,0,0,0l0,0c1.5,1,2.3,2.6,2.3,4.3 V218.6z M96.2,146.2c1.5,1,2.3,2.6,2.3,4.3v26.4L77.7,163v-29.2L96.2,146.2z"></path> <path d="M187.1,320c2.9,0,5.2-2.3,5.2-5.2v-42l10.4-6.9c13.1-8.7,20.9-23.3,20.9-39c0-49.3,0-105.3,0-137.1c0-2.9-2.3-5.2-5.2-5.2 s-5.2,2.3-5.2,5.2v31.6l-20.8,13.9V79.3c0-2.9-2.3-5.2-5.2-5.2s-5.2,2.3-5.2,5.2v55.9l-20.8-13.9V89.7c0-2.9-2.3-5.2-5.2-5.2 s-5.2,2.3-5.2,5.2v137.1c0,15.7,7.8,30.3,20.9,39l10.4,6.9v42C181.9,317.7,184.3,320,187.1,320z M192.4,150.5 c0-1.7,0.9-3.4,2.3-4.3l18.5-12.3V163l-20.8,13.9V150.5z M192.4,192.2c0-1.7,0.9-3.4,2.3-4.3l0,0c0,0,0,0,0,0l18.5-12.3v29.2 l-20.8,13.9V192.2z M192.4,233.9c0-1.7,0.9-3.4,2.3-4.3l0,0c0,0,0,0,0,0l18.5-12.3v9.6c0,12.2-6.1,23.6-16.2,30.3l-4.6,3.1V233.9z M161.1,133.9l18.5,12.3c1.5,1,2.3,2.6,2.3,4.3v26.4L161.1,163V133.9z M161.1,175.5l18.5,12.3c0,0,0,0,0,0l0,0 c1.5,1,2.3,2.6,2.3,4.3v26.4l-20.8-13.9V175.5z M177.3,257.2c-10.2-6.8-16.2-18.1-16.2-30.3v-9.6l18.5,12.3c0,0,0,0,0,0l0,0 c1.5,1,2.3,2.6,2.3,4.3v26.4L177.3,257.2z"></path> <path d="M270.5,320c2.9,0,5.2-2.3,5.2-5.2v-42l10.4-6.9c13.1-8.7,20.9-23.3,20.9-39c0-49.3,0-105.3,0-137.1c0-2.9-2.3-5.2-5.2-5.2 c-2.9,0-5.2,2.3-5.2,5.2v31.6l-20.8,13.9V79.3c0-2.9-2.3-5.2-5.2-5.2c-2.9,0-5.2,2.3-5.2,5.2v55.9l-20.8-13.9V89.7 c0-2.9-2.3-5.2-5.2-5.2c-2.9,0-5.2,2.3-5.2,5.2v137.1c0,15.7,7.8,30.3,20.9,39l10.4,6.9v42C265.3,317.7,267.6,320,270.5,320z M275.7,150.5c0-1.7,0.9-3.4,2.3-4.3l18.5-12.3V163l-20.8,13.9V150.5z M275.7,192.2c0-1.7,0.9-3.4,2.3-4.3l0,0c0,0,0,0,0,0 l18.5-12.3v29.2l-20.8,13.9V192.2z M275.7,233.9c0-1.7,0.9-3.4,2.3-4.3l0,0c0,0,0,0,0,0l18.5-12.3v9.6c0,12.2-6.1,23.6-16.2,30.3 l-4.6,3.1V233.9z M244.5,133.9l18.5,12.3c1.5,1,2.3,2.6,2.3,4.3v26.4L244.5,163V133.9z M244.5,175.5l18.5,12.3c0,0,0,0,0,0l0,0 c1.5,1,2.3,2.6,2.3,4.3v26.4l-20.8-13.9V175.5z M260.7,257.2c-10.2-6.8-16.2-18.1-16.2-30.3v-9.6l18.5,12.3c0,0,0,0,0,0l0,0 c1.5,1,2.3,2.6,2.3,4.3v26.4L260.7,257.2z"></path> </g> </svg> 