<?xml version="1.0" encoding="UTF-8"?> <svg xmlns="http://www.w3.org/2000/svg" height="477pt" viewBox="-7 0 477 477.656" width="477pt"><path d="m11.679688 387.3125 39.007812-39c1.074219-.390625 2.054688-1.007812 2.871094-1.808594 3.089844-3.113281 6.007812-6.390625 8.738281-9.824218l33.277344-33.265626c47.332031 42.933594 120.039062 41.128907 165.179687-4.101562 3.121094-3.125 3.121094-8.1875 0-11.3125-31.347656-31.28125-77.34375-42.8125-119.738281-30.023438l26.601563-26.601562c47.410156 42.183594 119.496093 40.046875 164.328124-4.871094 3.121094-3.125 3.121094-8.1875 0-11.3125-30.792968-30.734375-75.808593-42.398437-117.648437-30.480468l19.039063-19.054688h39.535156c41.988281.113281 82.273437-16.574219 111.882812-46.34375l-11.3125-11.3125c-21.632812 21.664062-49.726562 35.707031-80.042968 40 35.773437-21.710938 57.636718-60.5 57.699218-102.34375 0-4.417969-3.582031-8-8-8-42.820312.050781-82.367187 22.917969-103.777344 60 1-32.519531 14.390626-63.429688 37.433594-86.398438l-11.3125-11.257812c-20.945312 20.890625-34.917968 47.746094-40 76.886719-5.917968-16.570313-15.429687-31.625-27.855468-44.078125-3.125-3.125-8.191407-3.125-11.3125 0-44.492188 44.421875-47.066407 115.683594-5.898438 163.199218l-23.613281 23.617188c10.65625-41.101562-1.210938-84.769531-31.203125-114.824219-3.121094-3.125-8.1875-3.125-11.3125 0-44.488282 44.421875-47.0625 115.683594-5.894532 163.199219l-23.617187 23.617188c10.660156-41.101563-1.207031-84.769532-31.199219-114.824219-3.125-3.125-8.1875-3.125-11.3125 0-44.488281 44.421875-47.0625 115.679687-5.894531 163.199219l-36 36zm231.640624-93.65625c-38.859374 33.085938-95.980468 33.085938-134.839843 0 38.859375-33.085938 95.980469-33.085938 134.839843 0zm71.199219-72.800781c-38.859375 33.089843-95.988281 33.089843-134.847656 0 38.871094-33.054688 95.976563-33.054688 134.847656 0zm20.25-166.871094c-4.15625 50.835937-44.507812 91.1875-95.34375 95.34375 4.152344-50.835937 44.503907-91.1875 95.34375-95.34375zm-167.671875 63.671875c-.078125-24.71875 8.722656-48.644531 24.796875-67.425781 32.226563 37.839843 33.128907 93.203125 2.160157 132.074219l-2.398438 2.398437c-15.902344-18.714844-24.613281-42.488281-24.558594-67.046875zm-72 72c-.078125-24.71875 8.722656-48.644531 24.796875-67.425781 32.226563 37.839843 33.128907 93.203125 2.160157 132.074219l-2.398438 2.398437c-15.902344-18.714844-24.613281-42.488281-24.558594-67.046875zm-72 72c-.078125-24.71875 8.722656-48.644531 24.796875-67.425781 16.066407 18.785156 24.867188 42.707031 24.800781 67.425781.035157 23.496094-7.949218 46.304688-22.632812 64.648438l-2.398438 2.398437c-15.90625-18.714844-24.617187-42.488281-24.566406-67.046875zm0 0"></path><path d="m415.097656 445.65625c-.078125-66.242188-53.757812-119.925781-120-120-4.421875 0-8 3.582031-8 8 .074219 66.242188 53.753906 119.925781 120 120 4.417969 0 8-3.582031 8-8zm-111.671875-103.671875c50.835938 4.15625 91.1875 44.507813 95.34375 95.34375-50.839843-4.15625-91.191406-44.507813-95.34375-95.34375zm0 0"></path><path d="m422.296875 356.054688c2.121094 0 4.15625-.84375 5.65625-2.34375 46.859375-46.863282 46.859375-122.839844 0-169.703126-3.175781-3-8.140625-3-11.3125 0-46.777344 46.898438-46.777344 122.808594 0 169.703126 1.5 1.5 3.535156 2.34375 5.65625 2.34375zm0-154.605469c33.074219 38.855469 33.074219 95.96875 0 134.824219-33.003906-38.886719-33.003906-95.949219 0-134.832032zm0 0"></path><path d="m271.097656 357.65625c0-4.417969-3.582031-8-8-8-66.246094.074219-119.925781 53.757812-120 120 0 4.417969 3.578125 8 8 8 66.242188-.074219 119.921875-53.757812 120-120zm-16.328125 8.328125c-4.15625 50.835937-44.507812 91.1875-95.34375 95.34375 4.152344-50.835937 44.503907-91.1875 95.34375-95.34375zm0 0"></path></svg> 