<?xml version="1.0" encoding="UTF-8"?> <svg xmlns="http://www.w3.org/2000/svg" id="Capa_1" height="512" viewBox="0 0 512 512" width="512"><path d="m4.393 486.393c-5.858 5.858-5.858 15.355 0 21.213 5.857 5.858 15.355 5.858 21.213 0l117.865-117.865-21.213-21.213z"></path><path d="m477.527 72.919c19.817-11.353 33.208-32.701 33.209-57.132v-4.522c0-5.523-4.477-10-10-10h-4.523c-24.431 0-45.778 13.391-57.131 33.209 2.47 12.874 2.3 26.158-.527 38.972 12.814-2.827 26.099-2.997 38.972-.527z"></path><path d="m381.317 109.463.003.003 10.27-10.27c25.658-25.66 25.659-67.41-.001-93.069l-3.198-3.198c-3.905-3.906-10.237-3.905-14.142 0l-3.198 3.198c-10.503 10.504-16.708 23.675-18.626 37.333l.916.916c18.002 18.003 27.326 41.447 27.976 65.087z"></path><path d="m509.071 123.609-3.198-3.198c-25.66-25.66-67.41-25.659-93.069-.001l-10.27 10.27.003.003c23.641.651 47.084 9.974 65.087 27.977l.917.917c13.656-1.918 26.826-8.123 37.329-18.625l3.201-3.2c3.905-3.906 3.905-10.238 0-14.143z"></path><path d="m321.855 168.926.003.002 10.27-10.27c25.658-25.66 25.659-67.41-.001-93.069l-3.198-3.198c-3.905-3.905-10.237-3.905-14.142 0l-3.198 3.198c-10.503 10.504-16.708 23.675-18.626 37.333l.916.916c18.002 18.003 27.325 41.447 27.976 65.088z"></path><path d="m446.411 179.872c-25.66-25.66-67.41-25.659-93.069-.001l-10.27 10.271.003.002c23.641.651 47.084 9.974 65.087 27.977l.917.917c13.656-1.918 26.826-8.123 37.329-18.625l3.201-3.201c3.906-3.905 3.906-10.237 0-14.142z"></path><path d="m262.393 228.388.003.003 10.27-10.27c25.658-25.659 25.659-67.409-.001-93.069l-3.198-3.198c-3.905-3.906-10.237-3.905-14.142 0l-3.198 3.198c-10.503 10.504-16.708 23.675-18.626 37.333l.916.916c18.002 18.002 27.325 41.446 27.976 65.087z"></path><path d="m386.949 239.335c-25.66-25.66-67.41-25.659-93.069-.001l-10.27 10.27.003.003c23.641.651 47.084 9.974 65.087 27.977l.917.917c13.656-1.918 26.826-8.123 37.329-18.625l3.201-3.2c3.906-3.905 3.906-10.237 0-14.143z"></path><path d="m153.741 243.975-3.198-3.198c-3.905-3.905-10.237-3.905-14.142 0l-3.198 3.198c-25.7 25.702-25.699 67.371.002 93.072l10.267 10.267 10.27-10.27c25.658-25.659 25.659-67.409-.001-93.069z"></path><path d="m268.025 358.259c-25.66-25.66-67.41-25.659-93.069-.001l-10.27 10.271 10.267 10.267c25.701 25.701 67.37 25.702 93.072.002l3.198-3.198c3.906-3.905 3.906-10.237 0-14.143z"></path><path d="m202.931 287.85.003.002 10.27-10.27c25.658-25.66 25.659-67.41-.001-93.069l-3.198-3.198c-3.905-3.905-10.237-3.905-14.142 0l-3.198 3.198c-10.503 10.504-16.708 23.675-18.626 37.333l.916.916c18.002 18.003 27.325 41.447 27.976 65.088z"></path><path d="m327.487 298.796c-25.66-25.66-67.41-25.659-93.069-.001l-10.27 10.271.003.002c23.641.651 47.084 9.974 65.087 27.977l.917.917c13.656-1.918 26.826-8.123 37.329-18.625l3.201-3.201c3.906-3.905 3.906-10.237 0-14.142z"></path></svg> 