<svg width="477" height="477" viewBox="0 0 477 477" fill="none" xmlns="http://www.w3.org/2000/svg">
<g clip-path="url(#clip0)">
<path d="M18.9815 386.781L57.9357 347.834C59.0085 347.444 59.9876 346.828 60.8029 346.028C63.8885 342.919 66.8024 339.646 69.5292 336.217L102.761 302.997C150.028 345.872 222.635 344.07 267.714 298.901C270.83 295.781 270.83 290.725 267.714 287.604C236.409 256.366 190.476 244.851 148.14 257.622L174.705 231.057C222.05 273.183 294.037 271.049 338.807 226.193C341.924 223.072 341.924 218.017 338.807 214.896C308.057 184.204 263.103 172.556 221.32 184.457L240.333 165.429H279.814C321.745 165.542 361.975 148.877 391.543 119.149L380.246 107.852C358.643 129.486 330.588 143.51 300.313 147.797C336.038 126.116 357.871 87.3798 357.933 45.5935C357.933 41.1816 354.356 37.6045 349.944 37.6045C307.183 37.6552 267.69 60.491 246.309 97.5221C247.308 65.0473 260.68 34.1796 283.692 11.2424L272.395 0C251.478 20.8619 237.525 47.6805 232.45 76.7811C226.54 60.2336 217.041 45.1996 204.632 32.7635C201.512 29.6428 196.452 29.6428 193.335 32.7635C148.904 77.1244 146.334 148.288 187.445 195.739L163.864 219.323C174.506 178.278 162.655 134.67 132.704 104.657C129.587 101.536 124.528 101.536 121.407 104.657C76.9798 149.018 74.4092 220.182 115.521 267.632L91.9358 291.217C102.581 250.172 90.7305 206.564 60.7795 176.55C57.6588 173.429 52.6032 173.429 49.4825 176.55C5.05532 220.911 2.48464 292.071 43.5961 339.525L7.64551 375.476L18.9815 386.781ZM250.304 293.253C211.498 326.293 154.455 326.293 115.649 293.253C154.455 260.212 211.498 260.212 250.304 293.253ZM321.405 220.552C282.599 253.597 225.549 253.597 186.743 220.552C225.561 187.543 282.588 187.543 321.405 220.552ZM341.628 53.9102C337.477 104.676 297.181 144.973 246.415 149.123C250.561 98.3569 290.858 58.0608 341.628 53.9102ZM174.186 117.495C174.108 92.8099 182.897 68.9169 198.949 50.1615C231.131 87.9494 232.032 143.237 201.106 182.054L198.711 184.449C182.83 165.76 174.131 142.02 174.186 117.495ZM102.285 189.396C102.207 164.711 110.996 140.818 127.048 122.063C159.23 159.85 160.131 215.138 129.205 253.955L126.81 256.351C110.929 237.661 102.23 213.921 102.285 189.396ZM30.3838 261.297C30.3058 236.612 39.0944 212.719 55.1466 193.964C71.1909 212.723 79.9796 236.612 79.9133 261.297C79.9484 284.761 71.975 307.538 57.3116 325.857L54.9164 328.252C39.032 309.563 30.3331 285.822 30.3838 261.297Z" fill="black"/>
<path d="M421.845 445.044C421.767 378.893 368.161 325.283 302.01 325.209C297.594 325.209 294.021 328.786 294.021 333.198C294.095 399.349 347.701 452.959 413.856 453.033C418.268 453.033 421.845 449.456 421.845 445.044ZM310.327 341.515C361.093 345.665 401.389 385.961 405.54 436.728C354.77 432.577 314.474 392.281 310.327 341.515Z" fill="black"/>
<path d="M429.035 355.566C431.153 355.566 433.185 354.723 434.683 353.225C481.478 306.426 481.478 230.554 434.683 183.755C431.512 180.759 426.554 180.759 423.386 183.755C376.673 230.589 376.673 306.395 423.386 353.225C424.884 354.723 426.917 355.566 429.035 355.566ZM429.035 201.173C462.064 239.975 462.064 297.01 429.035 335.812C396.076 296.978 396.076 239.994 429.035 201.165V201.173Z" fill="black"/>
<path d="M278.043 357.165C278.043 352.753 274.466 349.176 270.054 349.176C203.899 349.25 150.293 402.86 150.219 469.011C150.219 473.423 153.792 477 158.208 477C224.359 476.926 277.965 423.316 278.043 357.165ZM261.738 365.482C257.587 416.248 217.291 456.544 166.525 460.695C170.671 409.928 210.967 369.632 261.738 365.482Z" fill="black"/>
</g>
<defs>
<clipPath id="clip0">
<rect width="477" height="477" fill="white"/>
</clipPath>
</defs>
</svg>
