<svg width="24" height="24" viewBox="0 0 24 24" fill="none" xmlns="http://www.w3.org/2000/svg">
<path opacity="0.4" fill-rule="evenodd" clip-rule="evenodd" d="M5.91052 20.5885C5.91052 19.7485 6.59052 19.0685 7.43052 19.0685C8.26052 19.0685 8.94052 19.7485 8.94052 20.5885C8.94052 21.4185 8.26052 22.0985 7.43052 22.0985C6.59052 22.0985 5.91052 21.4185 5.91052 20.5885ZM17.1605 20.5885C17.1605 19.7485 17.8405 19.0685 18.6805 19.0685C19.5105 19.0685 20.1905 19.7485 20.1905 20.5885C20.1905 21.4185 19.5105 22.0985 18.6805 22.0985C17.8405 22.0985 17.1605 21.4185 17.1605 20.5885Z" fill="#200E32"/>
<path fill-rule="evenodd" clip-rule="evenodd" d="M20.1907 6.349C20.8007 6.349 21.2007 6.559 21.6007 7.019C22.0007 7.479 22.0707 8.139 21.9807 8.738L21.0307 15.298C20.8507 16.559 19.7707 17.488 18.5007 17.488H7.59074C6.26074 17.488 5.16074 16.468 5.05074 15.149L4.13074 4.248L2.62074 3.988C2.22074 3.918 1.94074 3.528 2.01074 3.128C2.08074 2.718 2.47074 2.448 2.88074 2.508L5.26574 2.868C5.60574 2.929 5.85574 3.208 5.88574 3.548L6.07574 5.788C6.10574 6.109 6.36574 6.349 6.68574 6.349H20.1907ZM14.1307 11.548H16.9007C17.3207 11.548 17.6507 11.208 17.6507 10.798C17.6507 10.378 17.3207 10.048 16.9007 10.048H14.1307C13.7107 10.048 13.3807 10.378 13.3807 10.798C13.3807 11.208 13.7107 11.548 14.1307 11.548Z" fill="#200E32"/>
</svg>
