<svg width="42" height="42" viewBox="0 0 42 42" fill="none" xmlns="http://www.w3.org/2000/svg">
<path fill-rule="evenodd" clip-rule="evenodd" d="M29.2425 17.6263C29.2425 18.5003 29.9425 19.1995 30.8175 19.1995C31.6925 19.1995 32.41 18.5003 32.41 17.6263C32.41 16.7522 31.6925 16.0355 30.8175 16.0355C29.9425 16.0355 29.2425 16.7522 29.2425 17.6263ZM25.8475 28.1845C24.605 29.4257 22.89 30.1948 21 30.1948C19.1625 30.1948 17.4475 29.4781 16.135 28.1845C14.84 26.8735 14.1225 25.1604 14.1225 23.3249C14.105 21.507 14.8225 19.7939 16.1175 18.4828C17.43 17.1718 19.1625 16.4551 21 16.4551C22.8375 16.4551 24.57 17.1718 25.865 18.4653C27.16 19.7764 27.8775 21.507 27.8775 23.3249C27.86 25.2303 27.09 26.9434 25.8475 28.1845ZM21 19.0772C19.8625 19.0772 18.795 19.5142 17.9725 20.3358C17.1675 21.1399 16.73 22.2062 16.7475 23.3075V23.3249C16.7475 24.4612 17.185 25.5275 17.99 26.3316C18.795 27.1357 19.8625 27.5727 21 27.5727C23.345 27.5727 25.235 25.6673 25.2525 23.3249C25.2525 22.1887 24.815 21.1224 24.01 20.3183C23.205 19.5142 22.1375 19.0772 21 19.0772Z" fill="white"/>
<path opacity="0.4" d="M30.52 10.9137L30.345 10.5291C29.8725 9.53274 29.33 8.37902 28.9975 7.71476C28.1925 6.14151 26.81 5.26748 25.1125 5.25H16.87C15.1725 5.26748 13.8075 6.14151 13.0025 7.71476C12.6525 8.41398 12.0575 9.67259 11.5675 10.7039L11.4625 10.9137C11.41 11.0536 11.27 11.1235 11.13 11.1235C6.9125 11.1235 3.5 14.5497 3.5 18.745V29.1285C3.5 33.3238 6.9125 36.75 11.13 36.75H30.87C35.07 36.75 38.5 33.3238 38.5 29.1285V18.745C38.5 14.5497 35.07 11.1235 30.87 11.1235C30.7125 11.1235 30.59 11.0361 30.52 10.9137Z" fill="white"/>
</svg>
