<svg width="24" height="24" viewBox="0 0 24 24" fill="none" xmlns="http://www.w3.org/2000/svg">
<path opacity="0.4" d="M11.2503 16.2697C11.2503 15.8557 11.5863 15.5137 12.0003 15.5137C12.4143 15.5137 12.7503 15.8447 12.7503 16.2587V16.2697C12.7503 16.6837 12.4143 17.0197 12.0003 17.0197C11.5863 17.0197 11.2503 16.6837 11.2503 16.2697Z" fill="white"/>
<path d="M4.79569 20.418H19.2777C20.4247 20.358 21.3067 19.381 21.2477 18.234C21.2347 18.002 21.1847 17.773 21.0967 17.559L13.8197 4.82298C13.2637 3.81798 11.9987 3.45398 10.9937 4.01098C10.6517 4.19898 10.3697 4.48098 10.1807 4.82298L2.90369 17.559C2.47169 18.623 2.98369 19.835 4.04669 20.268C4.26269 20.355 4.49069 20.405 4.72269 20.418" stroke="white" stroke-width="1.5" stroke-linecap="round" stroke-linejoin="round"/>
<path opacity="0.4" d="M11.9899 13.3961V10.2961" stroke="white" stroke-width="1.5" stroke-linecap="round" stroke-linejoin="round"/>
</svg>
