<svg width="42" height="42" viewBox="0 0 42 42" fill="none" xmlns="http://www.w3.org/2000/svg">
<path opacity="0.4" d="M29.5476 8.95098H24.3972C23.1141 8.95946 21.896 8.38872 21.0829 7.39814L19.3869 5.05334C18.5874 4.05407 17.3693 3.48065 16.0881 3.5005H12.4471C5.91183 3.5005 3.50002 7.33602 3.50002 13.858V20.9079C3.49189 21.6832 38.4924 21.6822 38.4946 20.9079V18.8581C38.5257 12.3362 36.1762 8.95098 29.5476 8.95098Z" fill="white"/>
<path fill-rule="evenodd" clip-rule="evenodd" d="M36.4562 11.4511C37.0161 12.1057 37.4488 12.8588 37.7322 13.6716C38.2897 15.3423 38.5478 17.098 38.4946 18.8581V28.051C38.4924 28.8253 38.4352 29.5985 38.3234 30.3647C38.1107 31.717 37.6349 33.0147 36.923 34.1847C36.5958 34.7499 36.1985 35.2716 35.7405 35.7375C33.667 37.6405 30.9137 38.631 28.1005 38.4861H13.8786C11.0609 38.63 8.30308 37.6399 6.22302 35.7375C5.77046 35.2707 5.37839 34.749 5.05601 34.1847C4.34831 33.0155 3.88271 31.7166 3.68672 30.3647C3.56211 29.5997 3.49966 28.826 3.5 28.051V18.8581C3.4997 18.0904 3.54125 17.3232 3.62448 16.5599C3.64199 16.426 3.66824 16.2943 3.69422 16.1639C3.73753 15.9466 3.78008 15.7331 3.78008 15.5195C3.93804 14.5984 4.22618 13.7044 4.63589 12.8642C5.84957 10.2709 8.33919 8.95099 12.4159 8.95099H29.532C31.8154 8.77439 34.0818 9.46179 35.8805 10.8765C36.0877 11.0522 36.2802 11.2443 36.4562 11.4511ZM12.1981 27.1969H29.8121H29.8432C30.2297 27.2137 30.6068 27.0753 30.8904 26.8128C31.174 26.5502 31.3404 26.1852 31.3525 25.7993C31.3744 25.4602 31.2627 25.1259 31.0413 24.8676C30.7867 24.5206 30.3831 24.3135 29.9521 24.3086H12.1981C11.3989 24.3086 10.751 24.9552 10.751 25.7527C10.751 26.5503 11.3989 27.1969 12.1981 27.1969Z" fill="white"/>
</svg>
