<svg width="42" height="42" viewBox="0 0 42 42" fill="none" xmlns="http://www.w3.org/2000/svg">
<path opacity="0.4" d="M29.1822 3.5H12.8333C6.87556 3.5 3.5 6.87556 3.5 12.8333V29.1667C3.5 35.1244 6.87556 38.5 12.8333 38.5H29.1822C35.14 38.5 38.5 35.1244 38.5 29.1667V12.8333C38.5 6.87556 35.14 3.5 29.1822 3.5" fill="#200E32"/>
<path d="M12.8952 16.3957C12.1018 16.3957 11.4485 17.0491 11.4485 17.8579V29.8824C11.4485 30.6757 12.1018 31.3291 12.8952 31.3291C13.704 31.3291 14.3574 30.6757 14.3574 29.8824V17.8579C14.3574 17.0491 13.704 16.3957 12.8952 16.3957" fill="#200E32"/>
<path d="M21.0619 10.6557C20.2686 10.6557 19.6152 11.309 19.6152 12.1179V29.8824C19.6152 30.6757 20.2686 31.329 21.0619 31.329C21.8708 31.329 22.5241 30.6757 22.5241 29.8824V12.1179C22.5241 11.309 21.8708 10.6557 21.0619 10.6557" fill="#200E32"/>
<path d="M29.1199 22.7424C28.311 22.7424 27.6577 23.3957 27.6577 24.2046V29.8824C27.6577 30.6757 28.311 31.329 29.1044 31.329C29.9133 31.329 30.5666 30.6757 30.5666 29.8824V24.2046C30.5666 23.3957 29.9133 22.7424 29.1199 22.7424" fill="#200E32"/>
</svg>
